<?xml version="1.0" encoding="UTF-8"?>
<svg version="1.1" xmlns="http://www.w3.org/2000/svg" width="1898" height="986">
<path d="M0 0 C626.34 0 1252.68 0 1898 0 C1898 325.38 1898 650.76 1898 986 C1271.66 986 645.32 986 0 986 C0 660.62 0 335.24 0 0 Z " fill="#848484" transform="translate(0,0)"/>
<path d="M0 0 C1.29871753 -0.00352835 1.29871753 -0.00352835 2.62367177 -0.00712797 C5.55095212 -0.01383245 8.47818822 -0.01335931 11.40547562 -0.01294994 C13.51497441 -0.01624766 15.62447257 -0.01997303 17.73396993 -0.02409142 C23.55128432 -0.03412991 29.36858839 -0.03783118 35.18591022 -0.04048073 C41.45190306 -0.04437827 47.71788767 -0.05395692 53.98387527 -0.0626936 C68.4097248 -0.08153765 82.83557246 -0.09171595 97.26143103 -0.10015428 C104.38805691 -0.10435937 111.51468195 -0.10958152 118.64130711 -0.11483881 C143.03005485 -0.13272913 167.41880283 -0.14772603 191.80755615 -0.155159 C193.33892046 -0.15563376 194.87028477 -0.15610964 196.40164907 -0.15658666 C197.54079143 -0.15694122 197.54079143 -0.15694122 198.70294676 -0.15730295 C202.55066878 -0.15850416 206.39839081 -0.15971961 210.24611282 -0.16094494 C211.00970831 -0.16118509 211.7733038 -0.16142524 212.56003854 -0.16167267 C237.32401029 -0.16956761 262.08793417 -0.19300339 286.85188502 -0.22550088 C313.02553655 -0.2597857 339.19916008 -0.27950885 365.37283444 -0.28280324 C368.24515741 -0.28322079 371.11748036 -0.28370035 373.98980331 -0.28422642 C374.6970649 -0.28434961 375.40432648 -0.2844728 376.13302024 -0.28459973 C387.5228837 -0.28693336 398.91269164 -0.30260233 410.3025353 -0.32306826 C421.74747398 -0.34330721 433.1923211 -0.34847885 444.637279 -0.33929763 C450.83960152 -0.33473946 457.04174346 -0.33672721 463.24404144 -0.35605907 C468.91902184 -0.37359505 474.59368862 -0.37277103 480.2686719 -0.35716178 C482.32455159 -0.35477113 484.38045247 -0.3591841 486.43629965 -0.37099043 C489.22633955 -0.38602397 492.01525591 -0.37649603 494.80526733 -0.36076355 C495.60744556 -0.37098576 496.40962379 -0.38120796 497.23611045 -0.39173993 C503.62617963 -0.31284964 507.84919046 1.53584786 512.61525345 5.95062733 C513.08189407 6.52683826 513.5485347 7.1030492 514.02931595 7.69672108 C514.51142532 8.27551014 514.9935347 8.8542992 515.49025345 9.45062733 C518.22654476 13.40814932 517.80256419 17.66130399 517.80148697 22.26170826 C517.80516366 23.09983879 517.80884035 23.93796933 517.81262845 24.80149776 C517.823674 27.62033811 517.82751061 30.43914161 517.8313179 33.25800037 C517.83758191 35.27499477 517.84422866 37.29198802 517.85123062 39.30897999 C517.86864644 44.79676377 517.87919407 50.28453883 517.88743615 55.7723434 C517.89258529 59.20050982 517.89866107 62.62867353 517.90494728 66.05683804 C517.92400136 76.78148002 517.9382318 87.50611511 517.94655925 98.23077077 C517.95633216 110.61282239 517.9826523 122.99469526 518.02306014 135.37668389 C518.05321588 144.94536926 518.06802763 154.51400339 518.07134026 164.08273536 C518.07369143 169.79847629 518.08266064 175.51402632 518.10780144 181.2297163 C518.13107741 186.60841813 518.13531716 191.98680328 518.12504005 197.36554241 C518.12454447 199.33757804 518.13087165 201.30962923 518.1445961 203.28161716 C518.1623139 205.97872842 518.15520951 208.67470309 518.14206314 211.37181568 C518.15303239 212.14800194 518.16400163 212.9241882 518.17530328 213.72389525 C518.09981087 220.16082563 516.18921896 225.52505332 511.65431595 230.19281483 C510.99431595 230.64785389 510.33431595 231.10289295 509.65431595 231.57172108 C508.99431595 232.04480701 508.33431595 232.51789295 507.65431595 233.00531483 C503.10839974 235.57127144 498.3399988 235.27687634 493.24805355 235.26564884 C492.38784152 235.26770148 491.52762948 235.26975411 490.64135042 235.27186894 C487.73913848 235.2775542 484.83697378 235.27607982 481.93475723 235.27466297 C479.84089472 235.27724573 477.7470327 235.28025863 475.65317136 235.28366637 C469.8837211 235.29175004 464.11428327 235.2935267 458.34482801 235.29426384 C452.12861571 235.296112 445.91240989 235.30365808 439.69620132 235.31039906 C425.38792911 235.32470113 411.07966095 235.33050994 396.77138311 235.335091 C389.70232352 235.33742641 382.63326475 235.34102898 375.5642058 235.34478638 C351.37065485 235.35762155 327.17710435 235.36834126 302.98355007 235.37178898 C301.46471664 235.37201061 299.94588321 235.3722324 298.42704977 235.37245433 C296.90453163 235.37267497 295.38201349 235.37289545 293.85949534 235.37311578 C290.80501823 235.37355833 287.75054111 235.37400545 284.696064 235.37445545 C283.93873077 235.37456484 283.18139754 235.37467423 282.40111481 235.37478694 C257.83784268 235.37841856 233.27460004 235.39434272 208.7113392 235.41764582 C182.74722294 235.44223292 156.78312354 235.45596128 130.8189953 235.4571569 C127.96971754 235.45732835 125.12043979 235.45754378 122.27116203 235.45779133 C121.21878831 235.45787498 121.21878831 235.45787498 120.14515451 235.45796032 C108.84741111 235.45911168 97.54969795 235.47014077 86.25196477 235.48467838 C74.90013637 235.49903323 63.54835775 235.50203324 52.19651886 235.49423841 C46.04485131 235.4903225 39.89328567 235.49130733 33.74163055 235.50529575 C28.11299437 235.51797814 22.48453725 235.51688713 16.85590152 235.50470504 C14.81687737 235.5027382 12.77784079 235.50587167 10.73883417 235.5145494 C7.97170446 235.52558273 5.20521334 235.51819558 2.43810177 235.50615788 C1.64262677 235.51375307 0.84715177 235.52134826 0.02757147 235.52917361 C-6.61210872 235.46662643 -11.03429349 233.68996473 -16.59568405 229.94672108 C-22.08544918 224.33218856 -22.79172701 217.92187218 -22.72663498 210.42996693 C-22.73131495 209.59023669 -22.73599492 208.75050645 -22.74081671 207.88532984 C-22.7527166 205.09101372 -22.74332927 202.29719258 -22.73386765 199.50287342 C-22.73793551 197.49174687 -22.74327859 195.48062255 -22.74979782 193.46950245 C-22.76344985 188.021344 -22.75818191 182.57335638 -22.74866056 177.12519503 C-22.74105515 171.41983524 -22.74811184 165.71448989 -22.75281906 160.00912952 C-22.75827315 150.43100837 -22.75109315 140.85295668 -22.73679733 131.27484608 C-22.7204622 120.20256026 -22.72576704 109.1304401 -22.74227655 98.05815828 C-22.75589015 88.54713949 -22.75781196 79.03617056 -22.74996054 69.52514517 C-22.74528455 63.84648365 -22.74465739 58.16790002 -22.75457001 52.48924351 C-22.76323584 47.15235542 -22.75722463 41.81568104 -22.73988724 36.47881603 C-22.73592077 34.52046342 -22.73705917 32.56209282 -22.74367523 30.60374737 C-22.75187416 27.93042479 -22.74158922 25.25778691 -22.72663498 22.58450794 C-22.73332714 21.80979755 -22.74001931 21.03508715 -22.74691427 20.23690069 C-22.68378868 14.41828799 -21.38932437 10.33031037 -17.40818405 6.05218983 C-16.72755905 5.48113514 -16.04693405 4.91008045 -15.34568405 4.32172108 C-14.66505905 3.73777576 -13.98443405 3.15383045 -13.28318405 2.55218983 C-9.1783004 -0.45198914 -4.85726938 -0.00887983 0 0 Z " fill="#656565" transform="translate(702.3456840515137,106.86577892303467)"/>
<path d="M0 0 C1.45797283 -0.00130903 2.91594496 -0.00393724 4.37391335 -0.0077675 C8.37154272 -0.01446537 12.36893029 -0.00248949 16.36652887 0.01256669 C20.68069272 0.02553289 24.99484314 0.02113717 29.309021 0.01885986 C36.7807176 0.0172875 44.25233555 0.02669286 51.72401237 0.04357338 C62.52676451 0.06796379 73.32947864 0.0757687 84.13225532 0.07953735 C101.65940454 0.08610177 119.18651184 0.10606268 136.71363831 0.13444519 C153.73870128 0.16198601 170.76375286 0.18321948 187.78883362 0.19596863 C188.838417 0.1967568 189.88800038 0.19754497 190.96938931 0.19835702 C196.23488788 0.20227216 201.50038653 0.20606328 206.76588523 0.20979273 C250.44226489 0.24088833 294.11859885 0.29372388 337.79493713 0.36076355 C336.12443592 1.47443102 334.43966518 2.56966878 332.70899963 3.58732605 C326.08897081 7.631644 322.25954861 11.96692911 319.79493713 19.36076355 C319.01272122 27.69437155 320.36891873 34.53794667 324.85743713 41.61076355 C328.31574079 45.43197561 333.15427341 47.32427811 337.79493713 49.36076355 C337.79493713 49.69076355 337.79493713 50.02076355 337.79493713 50.36076355 C293.12246925 50.47522031 248.4500169 50.56331823 203.77743129 50.6160902 C198.50283013 50.62234369 193.22822926 50.62881531 187.95362854 50.63542175 C186.90355524 50.63673331 185.85348195 50.63804486 184.77158825 50.63939615 C167.77133441 50.66114974 150.77116515 50.70057104 133.77096148 50.74652753 C116.32578703 50.79329341 98.88065686 50.82105924 81.4354223 50.83120602 C70.67167951 50.83806489 59.90817581 50.85972409 49.14450662 50.90034588 C41.76237268 50.92678584 34.38036225 50.93476169 26.9981844 50.92827044 C22.73967123 50.9250695 18.48157571 50.9299589 14.2231369 50.95679092 C10.32046716 50.9812012 6.41849416 50.98230138 2.5157917 50.96525802 C1.10780282 50.963153 -0.30023031 50.96943022 -1.70813267 50.98517946 C-11.11600285 51.08425585 -18.88794519 50.14093186 -26.1066612 43.65119821 C-31.24999654 38.28338681 -33.312163 32.3267874 -33.70506287 24.98576355 C-33.48696437 18.14884967 -31.09971646 12.61982721 -26.56053162 7.50920105 C-18.45577932 0.08136937 -10.57356851 -0.07049443 0 0 Z " fill="#ECECEE" transform="translate(743.2050628662109,196.6392364501953)"/>
<path d="M0 0 C0.80747177 -0.0049649 1.61494354 -0.00992981 2.44688416 -0.01504517 C5.09749221 -0.02955809 7.74804051 -0.03644915 10.39868164 -0.04199219 C11.76417743 -0.04623325 11.76417743 -0.04623325 13.15725899 -0.05056 C17.97105318 -0.06550561 22.78481773 -0.07476533 27.59863281 -0.07910156 C32.55595919 -0.08459129 37.51301162 -0.10864317 42.47025204 -0.13707352 C46.29737635 -0.15574127 50.12443504 -0.16090761 53.95160103 -0.16243744 C55.77874823 -0.16545319 57.60589458 -0.17344509 59.43299675 -0.18662262 C61.9933016 -0.20377638 64.55294144 -0.20178078 67.11328125 -0.1953125 C67.85898376 -0.20452728 68.60468628 -0.21374207 69.37298584 -0.22323608 C77.36519657 -0.16033977 84.77956081 2.60362712 90.62133789 8.16113281 C95.75961883 14.945788 97.31412061 20.69658756 96.62133789 29.16113281 C95.16102899 35.60029017 91.93430599 41.86753951 86.43774414 45.67285156 C79.97927766 49.37400887 75.03651171 50.3108493 67.59912109 50.30639648 C66.7936937 50.3097551 65.9882663 50.31311371 65.15843201 50.3165741 C62.496312 50.32607025 59.83425503 50.32802682 57.17211914 50.32910156 C55.31609573 50.33231606 53.46007257 50.33568027 51.60404968 50.33918762 C47.71112481 50.34517625 43.81822212 50.34702789 39.92529297 50.34643555 C34.95346668 50.34633417 29.98178398 50.35996267 25.00999165 50.37720776 C21.17424373 50.38836681 17.33853004 50.39035352 13.50276756 50.38982582 C11.67087499 50.39100096 9.83898138 50.39539643 8.00710487 50.40315819 C5.43481251 50.41303312 2.86282537 50.41005025 0.29052734 50.40405273 C-0.45629303 50.40967224 -1.2031134 50.41529175 -1.9725647 50.42108154 C-11.25545782 50.36650057 -18.54475103 48.65412316 -25.37866211 42.16113281 C-30.30438471 36.0687917 -31.94199608 29.51569013 -31.75366211 21.78222656 C-30.70579101 14.45804422 -26.82433186 8.84545243 -21.12475586 4.31738281 C-14.60164462 -0.00217184 -7.65553584 0.0114451 0 0 Z " fill="#F91B03" transform="translate(1093.378662109375,196.8388671875)"/>
<path d="M0 0 C9.9 0 19.8 0 30 0 C30 9.9 30 19.8 30 30 C20.1 30 10.2 30 0 30 C0 20.1 0 10.2 0 0 Z " fill="#F8DCE8" transform="translate(834,147)"/>
<path d="M0 0 C0.66 0 1.32 0 2 0 C2.33 0.99 2.66 1.98 3 3 C3.99 3 4.98 3 6 3 C6.08090971 4.62418745 6.13914995 6.24951745 6.1875 7.875 C6.22230469 8.77992188 6.25710938 9.68484375 6.29296875 10.6171875 C6.19628906 11.40351563 6.09960938 12.18984375 6 13 C5.01 13.66 4.02 14.32 3 15 C3.99 15 4.98 15 6 15 C6 15.99 6 16.98 6 18 C7.65 18 9.3 18 11 18 C10.34 14.7 9.68 11.4 9 8 C9.66 7.67 10.32 7.34 11 7 C11.66 8.98 12.32 10.96 13 13 C13.33 8.71 13.66 4.42 14 0 C18.09280628 2.04640314 20.81391842 3.99272036 23 8 C23.57121784 10.9945024 23.4796319 13.8409132 23.3125 16.875 C23.28994141 17.65875 23.26738281 18.4425 23.24414062 19.25 C23.18568018 21.1675026 23.09601283 23.0840106 23 25 C19.91698584 25.11644156 16.83453877 25.18732432 13.75 25.25 C12.44095703 25.30027344 12.44095703 25.30027344 11.10546875 25.3515625 C7.37825965 25.40846646 4.74915785 25.38811792 1.40625 23.65625 C-0.87733341 19.34281466 -0.41586738 15.04101547 -0.25 10.25 C-0.23195313 9.26644531 -0.21390625 8.28289062 -0.1953125 7.26953125 C-0.14824126 4.84536217 -0.08250742 2.42317941 0 0 Z " fill="#D5B9C4" transform="translate(841,152)"/>
<path d="M0 0 C1.5675 -0.061875 3.135 -0.12375 4.75 -0.1875 C6.07257812 -0.23970703 6.07257812 -0.23970703 7.421875 -0.29296875 C10.55118319 0.06263445 11.83743932 0.71839928 14 3 C14.99809078 7.39600278 14.71547164 11.63409959 12.625 15.625 C8.44157688 17.81631687 4.67683892 17.24614942 0 17 C0 11.39 0 5.78 0 0 Z " fill="#0C0808" transform="translate(747,153)"/>
<path d="M0 0 C0.66 0 1.32 0 2 0 C2.33 0.99 2.66 1.98 3 3 C3.99 3 4.98 3 6 3 C6.08090971 4.62418745 6.13914995 6.24951745 6.1875 7.875 C6.22230469 8.77992188 6.25710938 9.68484375 6.29296875 10.6171875 C6.19628906 11.40351563 6.09960938 12.18984375 6 13 C5.01 13.66 4.02 14.32 3 15 C3.99 15 4.98 15 6 15 C6 15.99 6 16.98 6 18 C7.65 18 9.3 18 11 18 C10.34 14.7 9.68 11.4 9 8 C9.66 7.67 10.32 7.34 11 7 C11.66 8.98 12.32 10.96 13 13 C13.33 8.71 13.66 4.42 14 0 C14.66 0 15.32 0 16 0 C16 6.93 16 13.86 16 21 C10.72 21 5.44 21 0 21 C0 14.07 0 7.14 0 0 Z " fill="#988788" transform="translate(841,152)"/>
<path d="M0 0 C2.375 1.625 2.375 1.625 4 4 C4 7.51359068 3.6312066 9.27528132 1.3125 11.9375 C-1.86221916 13.39615475 -3.69878201 13.00471852 -7 12 C-9 9 -9 9 -8.8125 5.4375 C-7.60351995 0.32258439 -4.95769619 -0.72551652 0 0 Z " fill="#0D0C0E" transform="translate(733,157)"/>
<path d="M0 0 C3.96 0 7.92 0 12 0 C12 4.95 12 9.9 12 15 C10.22293791 12.33440687 9.12451727 9.9719385 8 7 C8.33 10.3 8.66 13.6 9 17 C7.35 17 5.7 17 4 17 C4 16.01 4 15.02 4 14 C3.01 14 2.02 14 1 14 C0.67 14.99 0.34 15.98 0 17 C0 15.35 0 13.7 0 12 C0.99 12 1.98 12 3 12 C3.33 8.7 3.66 5.4 4 2 C2.68 2.33 1.36 2.66 0 3 C0 2.01 0 1.02 0 0 Z " fill="#F7F6F1" transform="translate(843,153)"/>
<path d="M0 0 C2 2 2 2 2.375 5.4375 C2 9 2 9 0.375 11 C-2.83596428 12.35198496 -4.69946166 12.00451167 -8 11 C-10.31361802 7.52957297 -10.51020728 6.08165827 -10 2 C-6.94783427 -1.63912068 -4.35383535 -1.23043173 0 0 Z " fill="#130908" transform="translate(774,158)"/>
<path d="M0 0 C5.75 -0.125 5.75 -0.125 8 1 C8.02689216 2.47906892 8.04634621 3.95827483 8.0625 5.4375 C8.07410156 6.26121094 8.08570313 7.08492187 8.09765625 7.93359375 C8 10 8 10 7 11 C4.66702567 11.04092937 2.33294775 11.04241723 0 11 C0 7.37 0 3.74 0 0 Z " fill="#5C5E5F" transform="translate(750,156)"/>
<path d="M0 0 C0.33 0.99 0.66 1.98 1 3 C-1.38564077 2.42415568 -3.66682784 1.77772405 -6 1 C-5.10664203 3.35785318 -5.10664203 3.35785318 -1.9375 4.125 C-0.4834375 4.558125 -0.4834375 4.558125 1 5 C1.1875 7.375 1.1875 7.375 1 10 C-2.22143276 12.14762184 -3.2595467 12.561068 -7 12 C-8.8125 10 -8.8125 10 -10 8 C-7.33333333 8.66666667 -4.66666667 9.33333333 -2 10 C-2 9.01 -2 8.02 -2 7 C-2.969375 6.855625 -3.93875 6.71125 -4.9375 6.5625 C-8 6 -8 6 -9 5 C-9.04063832 3.33382885 -9.042721 1.66611905 -9 0 C-5.93109813 -1.53445094 -3.29905734 -0.54984289 0 0 Z " fill="#0A080A" transform="translate(808,158)"/>
<path d="M0 0 C4.29 0 8.58 0 13 0 C13 0.99 13 1.98 13 3 C11.35 3 9.7 3 8 3 C8 7.62 8 12.24 8 17 C7.01 17 6.02 17 5 17 C5 12.38 5 7.76 5 3 C3.35 3 1.7 3 0 3 C0 2.01 0 1.02 0 0 Z " fill="#010812" transform="translate(712,153)"/>
<path d="M0 0 C0.66 0 1.32 0 2 0 C2 3.96 2 7.92 2 12 C0.02 12 -1.96 12 -4 12 C-6 10 -6 10 -6.25 7.5 C-6 5 -6 5 -4 3 C-2.68 3 -1.36 3 0 3 C0 2.01 0 1.02 0 0 Z " fill="#FDE4E2" transform="translate(1137,215)"/>
<path d="M0 0 C0.66 0 1.32 0 2 0 C2 0.99 2 1.98 2 3 C2.99 3 3.98 3 5 3 C5 3.99 5 4.98 5 6 C4.01 6 3.02 6 2 6 C2 8.31 2 10.62 2 13 C2.99 13 3.98 13 5 13 C5 13.99 5 14.98 5 16 C3.33388095 16.042721 1.66617115 16.04063832 0 16 C-1 15 -1 15 -1.09765625 12.93359375 C-1.08025391 11.69802734 -1.08025391 11.69802734 -1.0625 10.4375 C-1.05347656 9.61121094 -1.04445313 8.78492188 -1.03515625 7.93359375 C-1.02355469 7.29550781 -1.01195312 6.65742188 -1 6 C-1.66 6 -2.32 6 -3 6 C-3 5.01 -3 4.02 -3 3 C-2.34 3 -1.68 3 -1 3 C-0.67 2.01 -0.34 1.02 0 0 Z " fill="#0F0A0C" transform="translate(814,154)"/>
<path d="M0 0 C0.66 0 1.32 0 2 0 C2 3.96 2 7.92 2 12 C0.02 12 -1.96 12 -4 12 C-5 11 -5 11 -5.0625 7.4375 C-5.041875 6.303125 -5.02125 5.16875 -5 4 C-3.35 3.67 -1.7 3.34 0 3 C0 2.01 0 1.02 0 0 Z " fill="#FDDDE6" transform="translate(1128,215)"/>
<path d="M0 0 C0.99 0 1.98 0 3 0 C3.6708712 1.6232687 4.33657029 3.24867578 5 4.875 C5.556875 6.23238281 5.556875 6.23238281 6.125 7.6171875 C7 10 7 10 7 12 C6.34 12 5.68 12 5 12 C4.67 10.68 4.34 9.36 4 8 C2.35 8 0.7 8 -1 8 C-1.33 9.32 -1.66 10.64 -2 12 C-2.66 12 -3.32 12 -4 12 C-3.52309796 10.37433394 -3.04340334 8.74948689 -2.5625 7.125 C-2.29566406 6.22007812 -2.02882813 5.31515625 -1.75390625 4.3828125 C-1 2 -1 2 0 0 Z " fill="#FDE4E0" transform="translate(1115,215)"/>
<path d="M0 0 C0.99 0 1.98 0 3 0 C3 5.61 3 11.22 3 17 C2.01 17 1.02 17 0 17 C0 11.39 0 5.78 0 0 Z " fill="#120205" transform="translate(786,153)"/>
<path d="M0 0 C2.9375 0.75 2.9375 0.75 4.9375 2.75 C5.0625 6.375 5.0625 6.375 4.9375 9.75 C2.98533565 7.79783565 2.08923355 6.21800047 0.9375 3.75 C-0.3825 3.75 -1.7025 3.75 -3.0625 3.75 C-3.3925 5.07 -3.7225 6.39 -4.0625 7.75 C-4.7225 7.75 -5.3825 7.75 -6.0625 7.75 C-6.25 4.875 -6.25 4.875 -6.0625 1.75 C-3.0625 -0.25 -3.0625 -0.25 0 0 Z " fill="#05050C" transform="translate(771.0625,157.25)"/>
<path d="M0 0 C0.66 0 1.32 0 2 0 C2 3.3 2 6.6 2 10 C0.35 10 -1.3 10 -3 10 C-4 9 -4 9 -4.0625 6.4375 C-4.041875 5.633125 -4.02125 4.82875 -4 4 C-2.68 3.67 -1.36 3.34 0 3 C0 2.01 0 1.02 0 0 Z " fill="#ABA7AB" transform="translate(761,217)"/>
<path d="M0 0 C0.66 0 1.32 0 2 0 C2 3.3 2 6.6 2 10 C0.35 10 -1.3 10 -3 10 C-4 9 -4 9 -4.0625 6.4375 C-4.041875 5.633125 -4.02125 4.82875 -4 4 C-2.68 3.67 -1.36 3.34 0 3 C0 2.01 0 1.02 0 0 Z " fill="#A7AAB1" transform="translate(754,217)"/>
<path d="M0 0 C0.33 0 0.66 0 1 0 C1 6.27 1 12.54 1 19 C0.01 19 -0.98 19 -2 19 C-2.99 15.37 -3.98 11.74 -5 8 C-4.34 7.67 -3.68 7.34 -3 7 C-2.34 8.98 -1.68 10.96 -1 13 C-0.67 8.71 -0.34 4.42 0 0 Z " fill="#BDB9B6" transform="translate(855,152)"/>
<path d="M0 0 C0.99 0.33 1.98 0.66 3 1 C3.94921875 3.06640625 3.94921875 3.06640625 4.6875 5.5625 C5.06455078 6.80193359 5.06455078 6.80193359 5.44921875 8.06640625 C5.63097656 8.70449219 5.81273437 9.34257812 6 10 C5.34 10 4.68 10 4 10 C4 9.01 4 8.02 4 7 C2.35 7 0.7 7 -1 7 C-1 7.99 -1 8.98 -1 10 C-1.66 10 -2.32 10 -3 10 C-2.01 6.7 -1.02 3.4 0 0 Z " fill="#A19FA7" transform="translate(743,217)"/>
<path d="M0 0 C0.99 0 1.98 0 3 0 C3 4.29 3 8.58 3 13 C2.01 13 1.02 13 0 13 C0 8.71 0 4.42 0 0 Z " fill="#010D1A" transform="translate(793,157)"/>
<path d="M0 0 C1.67542976 0.28604898 3.34385343 0.61781233 5 1 C5 2.65 5 4.3 5 6 C3.34385343 6.38218767 1.67542976 6.71395102 0 7 C-1 6 -1 6 -1.125 3.5 C-1 1 -1 1 0 0 Z " fill="#5B5F5F" transform="translate(768,160)"/>
<path d="M0 0 C1.67542976 0.28604898 3.34385343 0.61781233 5 1 C5 2.65 5 4.3 5 6 C3.34385343 6.38218767 1.67542976 6.71395102 0 7 C-1 6 -1 6 -1.125 3.5 C-1 1 -1 1 0 0 Z " fill="#585D60" transform="translate(728,160)"/>
<path d="M0 0 C1.65 0.33 3.3 0.66 5 1 C5 2.98 5 4.96 5 7 C3.35 7 1.7 7 0 7 C0 5.68 0 4.36 0 3 C0.99 3 1.98 3 3 3 C3 2.34 3 1.68 3 1 C2.01 1.33 1.02 1.66 0 2 C0 1.34 0 0.68 0 0 Z " fill="#9699A2" transform="translate(806,220)"/>
<path d="M0 0 C0.5775 0.639375 1.155 1.27875 1.75 1.9375 C3.98062401 3.98223868 5.07436391 4.58205199 8 5 C8 5.99 8 6.98 8 8 C4.97580475 7.41196203 1.98241547 6.77321882 -1 6 C-0.67 4.02 -0.34 2.04 0 0 Z " fill="#5F5D59" transform="translate(798,160)"/>
<path d="M0 0 C0.33 0.99 0.66 1.98 1 3 C-1.38564077 2.42415568 -3.66682784 1.77772405 -6 1 C-6.33 1.66 -6.66 2.32 -7 3 C-7.66 3 -8.32 3 -9 3 C-9 2.01 -9 1.02 -9 0 C-5.93109813 -1.53445094 -3.29905734 -0.54984289 0 0 Z " fill="#0D0E14" transform="translate(808,158)"/>
<path d="M0 0 C0.66 0 1.32 0 2 0 C2.66 2.64 3.32 5.28 4 8 C2.02 8.99 2.02 8.99 0 10 C0 6.7 0 3.4 0 0 Z " fill="#98959F" transform="translate(819,217)"/>
<path d="M0 0 C0.99 0.33 1.98 0.66 3 1 C3 2.65 3 4.3 3 6 C1.68 6 0.36 6 -1 6 C-1.042721 4.33388095 -1.04063832 2.66617115 -1 1 C-0.67 0.67 -0.34 0.34 0 0 Z " fill="#FA260C" transform="translate(1134,219)"/>
<path d="M0 0 C0.99 0 1.98 0 3 0 C3 2.31 3 4.62 3 7 C2.01 7 1.02 7 0 7 C-1.125 2.25 -1.125 2.25 0 0 Z " fill="#FC9892" transform="translate(1115,215)"/>
<path d="M0 0 C0.99 0.33 1.98 0.66 3 1 C3 2.65 3 4.3 3 6 C2.01 6.33 1.02 6.66 0 7 C-1.125 2.25 -1.125 2.25 0 0 Z " fill="#FA3B03" transform="translate(1125,219)"/>
<path d="M0 0 C2.39763185 2.39763185 2.34280586 3.33273498 2.625 6.625 C2.69976563 7.44226563 2.77453125 8.25953125 2.8515625 9.1015625 C2.90054688 9.72804687 2.94953125 10.35453125 3 11 C2.34 10.67 1.68 10.34 1 10 C0.33203125 7.96875 0.33203125 7.96875 -0.1875 5.5 C-0.36667969 4.6853125 -0.54585937 3.870625 -0.73046875 3.03125 C-0.81941406 2.3609375 -0.90835938 1.690625 -1 1 C-0.67 0.67 -0.34 0.34 0 0 Z " fill="#77BCBF" transform="translate(851,159)"/>
<path d="M0 0 C0.99 0 1.98 0 3 0 C3 0.99 3 1.98 3 3 C4.98 2.67 6.96 2.34 9 2 C9 2.66 9 3.32 9 4 C5.7 4 2.4 4 -1 4 C-0.67 2.68 -0.34 1.36 0 0 Z " fill="#D8D3D2" transform="translate(844,167)"/>
<path d="M0 0 C0.66 0 1.32 0 2 0 C2.33 2.31 2.66 4.62 3 7 C1.68 6.67 0.36 6.34 -1 6 C-1.042721 4.33388095 -1.04063832 2.66617115 -1 1 C-0.67 0.67 -0.34 0.34 0 0 Z " fill="#110705" transform="translate(725,160)"/>
<path d="M0 0 C0 0.66 0 1.32 0 2 C-2.64 2 -5.28 2 -8 2 C-8 1.34 -8 0.68 -8 0 C-5.13822943 -1.43088528 -3.06624227 -0.59991697 0 0 Z " fill="#DBBB4E" transform="translate(853,151)"/>
<path d="M0 0 C1.98 0 3.96 0 6 0 C6 0.99 6 1.98 6 3 C4.02 3 2.04 3 0 3 C0 2.01 0 1.02 0 0 Z " fill="#010205" transform="translate(739,162)"/>
</svg>
