<?xml version="1.0" encoding="UTF-8"?>
<svg version="1.1" xmlns="http://www.w3.org/2000/svg" width="1900" height="988">
<path d="M0 0 C627 0 1254 0 1900 0 C1900 326.04 1900 652.08 1900 988 C1273 988 646 988 0 988 C0 661.96 0 335.92 0 0 Z " fill="#017235" transform="translate(0,0)"/>
<path d="M0 0 C1.2452243 -0.00281982 2.49044861 -0.00563965 3.77340698 -0.00854492 C5.1660768 -0.00660033 6.55874648 -0.00455214 7.95141602 -0.00241089 C9.40805098 -0.00376489 10.86468561 -0.00554481 12.32131958 -0.00772095 C16.28815163 -0.01229548 20.25495779 -0.01050564 24.22179031 -0.00734186 C28.36400678 -0.00481836 32.50622095 -0.00715577 36.6484375 -0.00872803 C43.60587972 -0.01054975 50.56331134 -0.00814334 57.52075195 -0.00338745 C65.57609755 0.00205518 73.63141783 0.00029252 81.68676281 -0.00521386 C88.590353 -0.0097449 95.49393555 -0.01039558 102.39752674 -0.00777519 C106.52624235 -0.00621237 110.65494604 -0.00601879 114.78366089 -0.00931168 C118.66431748 -0.01219027 122.5449413 -0.01021492 126.42559433 -0.00441742 C127.85390035 -0.00308976 129.28220912 -0.00348404 130.71051407 -0.00568008 C132.65222325 -0.00839131 134.59393843 -0.00439701 136.53564453 0 C137.62482681 0.00037703 138.71400909 0.00075405 139.8361969 0.0011425 C142.26782227 0.12698364 142.26782227 0.12698364 143.26782227 1.12698364 C143.3671438 2.8225709 143.39862233 4.52224112 143.40063477 6.22073364 C143.40192383 7.25069458 143.40321289 8.28065552 143.40454102 9.34182739 C143.40067383 10.42592896 143.39680664 11.51003052 143.39282227 12.62698364 C143.39668945 13.71108521 143.40055664 14.79518677 143.40454102 15.91213989 C143.40260742 17.4570813 143.40260742 17.4570813 143.40063477 19.03323364 C143.39950684 19.9852063 143.39837891 20.93717896 143.3972168 21.91799927 C143.26782227 24.12698364 143.26782227 24.12698364 142.26782227 25.12698364 C140.35918178 25.22575934 138.44683911 25.25330572 136.53564453 25.25396729 C134.66780807 25.25819702 134.66780807 25.25819702 132.76223755 25.26251221 C131.36956773 25.26056761 129.97689805 25.25851942 128.58422852 25.25637817 C127.12759355 25.25773217 125.67095892 25.25951209 124.21432495 25.26168823 C120.2474929 25.26626277 116.28068674 25.26447293 112.31385422 25.26130915 C108.17163775 25.25878565 104.02942358 25.26112305 99.88720703 25.26269531 C92.92976481 25.26451704 85.97233319 25.26211062 79.01489258 25.25735474 C70.95954699 25.25191211 62.9042267 25.25367476 54.84888172 25.25918114 C47.94529153 25.26371219 41.04170898 25.26436286 34.13811779 25.26174247 C30.00940219 25.26017965 25.88069849 25.25998607 21.75198364 25.26327896 C17.87132705 25.26615755 13.99070323 25.26418221 10.1100502 25.2583847 C8.68174418 25.25705704 7.25343542 25.25745133 5.82513046 25.25964737 C3.88342128 25.26235859 1.9417061 25.2583643 0 25.25396729 C-1.08918228 25.25359026 -2.17836456 25.25321323 -3.30055237 25.25282478 C-5.73217773 25.12698364 -5.73217773 25.12698364 -6.73217773 24.12698364 C-6.83149927 22.43139639 -6.8629778 20.73172617 -6.86499023 19.03323364 C-6.86692383 17.48829224 -6.86692383 17.48829224 -6.86889648 15.91213989 C-6.8650293 14.82803833 -6.86116211 13.74393677 -6.85717773 12.62698364 C-6.86104492 11.54288208 -6.86491211 10.45878052 -6.86889648 9.34182739 C-6.86760742 8.31186646 -6.86631836 7.28190552 -6.86499023 6.22073364 C-6.8638623 5.26876099 -6.86273437 4.31678833 -6.86157227 3.33596802 C-6.60336933 -1.07199448 -3.79198568 0.00131261 0 0 Z " fill="#D5A320" transform="translate(956.732177734375,170.87301635742188)"/>
<path d="M0 0 C1.2452243 -0.00281982 2.49044861 -0.00563965 3.77340698 -0.00854492 C5.1660768 -0.00660033 6.55874648 -0.00455214 7.95141602 -0.00241089 C9.40805098 -0.00376489 10.86468561 -0.00554481 12.32131958 -0.00772095 C16.28815163 -0.01229548 20.25495779 -0.01050564 24.22179031 -0.00734186 C28.36400678 -0.00481836 32.50622095 -0.00715577 36.6484375 -0.00872803 C43.60587972 -0.01054975 50.56331134 -0.00814334 57.52075195 -0.00338745 C65.57609755 0.00205518 73.63141783 0.00029252 81.68676281 -0.00521386 C88.590353 -0.0097449 95.49393555 -0.01039558 102.39752674 -0.00777519 C106.52624235 -0.00621237 110.65494604 -0.00601879 114.78366089 -0.00931168 C118.66431748 -0.01219027 122.5449413 -0.01021492 126.42559433 -0.00441742 C127.85390035 -0.00308976 129.28220912 -0.00348404 130.71051407 -0.00568008 C132.65222325 -0.00839131 134.59393843 -0.00439701 136.53564453 0 C137.62482681 0.00037703 138.71400909 0.00075405 139.8361969 0.0011425 C142.26782227 0.12698364 142.26782227 0.12698364 143.26782227 1.12698364 C143.3671438 2.8225709 143.39862233 4.52224112 143.40063477 6.22073364 C143.40192383 7.25069458 143.40321289 8.28065552 143.40454102 9.34182739 C143.40067383 10.42592896 143.39680664 11.51003052 143.39282227 12.62698364 C143.39668945 13.71108521 143.40055664 14.79518677 143.40454102 15.91213989 C143.40260742 17.4570813 143.40260742 17.4570813 143.40063477 19.03323364 C143.39950684 19.9852063 143.39837891 20.93717896 143.3972168 21.91799927 C143.26782227 24.12698364 143.26782227 24.12698364 142.26782227 25.12698364 C140.35918178 25.22575934 138.44683911 25.25330572 136.53564453 25.25396729 C134.66780807 25.25819702 134.66780807 25.25819702 132.76223755 25.26251221 C131.36956773 25.26056761 129.97689805 25.25851942 128.58422852 25.25637817 C127.12759355 25.25773217 125.67095892 25.25951209 124.21432495 25.26168823 C120.2474929 25.26626277 116.28068674 25.26447293 112.31385422 25.26130915 C108.17163775 25.25878565 104.02942358 25.26112305 99.88720703 25.26269531 C92.92976481 25.26451704 85.97233319 25.26211062 79.01489258 25.25735474 C70.95954699 25.25191211 62.9042267 25.25367476 54.84888172 25.25918114 C47.94529153 25.26371219 41.04170898 25.26436286 34.13811779 25.26174247 C30.00940219 25.26017965 25.88069849 25.25998607 21.75198364 25.26327896 C17.87132705 25.26615755 13.99070323 25.26418221 10.1100502 25.2583847 C8.68174418 25.25705704 7.25343542 25.25745133 5.82513046 25.25964737 C3.88342128 25.26235859 1.9417061 25.2583643 0 25.25396729 C-1.08918228 25.25359026 -2.17836456 25.25321323 -3.30055237 25.25282478 C-5.73217773 25.12698364 -5.73217773 25.12698364 -6.73217773 24.12698364 C-6.83149927 22.43139639 -6.8629778 20.73172617 -6.86499023 19.03323364 C-6.86692383 17.48829224 -6.86692383 17.48829224 -6.86889648 15.91213989 C-6.8650293 14.82803833 -6.86116211 13.74393677 -6.85717773 12.62698364 C-6.86104492 11.54288208 -6.86491211 10.45878052 -6.86889648 9.34182739 C-6.86760742 8.31186646 -6.86631836 7.28190552 -6.86499023 6.22073364 C-6.8638623 5.26876099 -6.86273437 4.31678833 -6.86157227 3.33596802 C-6.60336933 -1.07199448 -3.79198568 0.00131261 0 0 Z " fill="#D1A220" transform="translate(802.732177734375,170.87301635742188)"/>
<path d="M0 0 C11 0 11 0 15 3 C15.375 5.5625 15.375 5.5625 15 8 C14.34 8.66 13.68 9.32 13 10 C13.495 10.37125 13.99 10.7425 14.5 11.125 C16 13 16 13 16.375 16 C16 19 16 19 14.625 20.8125 C9.50227732 24.55602811 8.53692672 23 0 23 C0 15.41 0 7.82 0 0 Z " fill="#C89F22" transform="translate(879,13)"/>
<path d="M0 0 C7.32057416 -0.48803828 7.32057416 -0.48803828 10.21875 1.59375 C12.53578535 4.72378022 12.59553622 6.88840538 12.75 10.75 C12.80671875 11.92046875 12.8634375 13.0909375 12.921875 14.296875 C12.96054687 15.63492188 12.96054687 15.63492188 13 17 C10.87527424 17.05386629 8.75016348 17.09273071 6.625 17.125 C5.44164062 17.14820312 4.25828125 17.17140625 3.0390625 17.1953125 C0 17 0 17 -2 15 C-2.33015665 11.89652746 -2.50531294 9.84218824 -0.875 7.125 C1.78034983 5.5317901 3.96789518 5.79785968 7 6 C7 5.34 7 4.68 7 4 C4.69 4 2.38 4 0 4 C0 2.68 0 1.36 0 0 Z " fill="#BE9C24" transform="translate(909,19)"/>
<path d="M0 0 C1.43655854 -0.08131463 2.8744483 -0.13933559 4.3125 -0.1875 C5.51326172 -0.23970703 5.51326172 -0.23970703 6.73828125 -0.29296875 C9 0 9 0 10.75 1.0625 C12.65026898 4.00791692 12.52856071 6.72262349 12.6875 10.1875 C12.78611328 12.09595703 12.78611328 12.09595703 12.88671875 14.04296875 C12.92410156 15.01878906 12.96148438 15.99460937 13 17 C11.06318839 17.08107583 9.1254066 17.13922475 7.1875 17.1875 C6.10855469 17.22230469 5.02960937 17.25710937 3.91796875 17.29296875 C1 17 1 17 -0.89453125 15.6796875 C-2 14 -2 14 -1.875 10.9375 C-1 8 -1 8 2 6 C3.65549531 5.61500109 5.3222433 5.27206865 7 5 C4.69 4.67 2.38 4.34 0 4 C0 2.68 0 1.36 0 0 Z " fill="#CEA222" transform="translate(971,19)"/>
<path d="M0 0 C0.99 0 1.98 0 3 0 C3.33 3.96 3.66 7.92 4 12 C4.556875 11.175 5.11375 10.35 5.6875 9.5 C8 7 8 7 10.75 6.6875 C11.4925 6.790625 12.235 6.89375 13 7 C11.68 9.31 10.36 11.62 9 14 C10.98 17.3 12.96 20.6 15 24 C12.1875 24.3125 12.1875 24.3125 9 24 C7.11400657 21.61107499 6 20.08148442 6 17 C5.34 17.33 4.68 17.66 4 18 C3.34227572 21.02934491 3.34227572 21.02934491 3 24 C1.68 24 0.36 24 -1 24 C-1.02887236 20.18751574 -1.04675492 16.3750593 -1.0625 12.5625 C-1.07087891 11.47388672 -1.07925781 10.38527344 -1.08789062 9.26367188 C-1.09111328 8.22919922 -1.09433594 7.19472656 -1.09765625 6.12890625 C-1.10289307 5.17056885 -1.10812988 4.21223145 -1.11352539 3.22485352 C-1 1 -1 1 0 0 Z " fill="#CCA122" transform="translate(942,12)"/>
<path d="M0 0 C0.99 0 1.98 0 3 0 C3.33 3.63 3.66 7.26 4 11 C4.556875 10.34 5.11375 9.68 5.6875 9 C8 7 8 7 10.75 6.75 C11.4925 6.8325 12.235 6.915 13 7 C12.319375 7.7425 11.63875 8.485 10.9375 9.25 C8.81401501 11.70331426 8.81401501 11.70331426 9 13.9375 C10.39297853 16.81051821 12.21776037 19.35538636 14 22 C14 22.66 14 23.32 14 24 C11.75 24.375 11.75 24.375 9 24 C6.75 21 6.75 21 5 18 C4.67 18 4.34 18 4 18 C3.67 19.98 3.34 21.96 3 24 C1.68 24 0.36 24 -1 24 C-1.02887236 20.18751574 -1.04675492 16.3750593 -1.0625 12.5625 C-1.07087891 11.47388672 -1.07925781 10.38527344 -1.08789062 9.26367188 C-1.09111328 8.22919922 -1.09433594 7.19472656 -1.09765625 6.12890625 C-1.10289307 5.17056885 -1.10812988 4.21223145 -1.11352539 3.22485352 C-1 1 -1 1 0 0 Z " fill="#D0A023" transform="translate(1005,12)"/>
<path d="M0 0 C2.19050021 0.09017996 4.378466 0.24666208 6.5625 0.4375 C7.76003906 0.53933594 8.95757813 0.64117187 10.19140625 0.74609375 C11.11824219 0.82988281 12.04507813 0.91367188 13 1 C13.58984375 3.35546875 13.58984375 3.35546875 14 6 C12.5625 8.3125 12.5625 8.3125 11 10 C11.99 10 12.98 10 14 10 C14 10.66 14 11.32 14 12 C10.33333333 12 6.66666667 12 3 12 C2.67 12.66 2.34 13.32 2 14 C1.34 14 0.68 14 0 14 C-0.66 13.01 -1.32 12.02 -2 11 C-1.67 10.01 -1.34 9.02 -1 8 C0.485 8.99 0.485 8.99 2 10 C1.319375 9.443125 0.63875 8.88625 -0.0625 8.3125 C-2 6 -2 6 -1.8125 3.3125 C-1 1 -1 1 0 0 Z " fill="#0F7D4A" transform="translate(965,217)"/>
<path d="M0 0 C0.66 0.99 1.32 1.98 2 3 C5.04173894 3.16670273 5.04173894 3.16670273 8 3 C9 4 9 4 9.0625 7.5625 C9.041875 8.696875 9.02125 9.83125 9 11 C6.54137599 11.05383848 4.0839245 11.09359038 1.625 11.125 C0.57699219 11.15013672 0.57699219 11.15013672 -0.4921875 11.17578125 C-2.32897486 11.19344267 -4.16601963 11.10303261 -6 11 C-8 9 -8 9 -8.3125 6.0625 C-8 3 -8 3 -6.8125 1.125 C-4.36063578 -0.39684676 -2.83181098 -0.43566323 0 0 Z " fill="#168251" transform="translate(933,103)"/>
<path d="M0 0 C0.66 0.33 1.32 0.66 2 1 C1.67 2.32 1.34 3.64 1 5 C-0.134375 4.979375 -1.26875 4.95875 -2.4375 4.9375 C-5.81575674 4.58422523 -5.81575674 4.58422523 -7 6 C-7.16666667 8.5 -7.16666667 8.5 -7 11 C-5.81575674 12.41577477 -5.81575674 12.41577477 -2.4375 12.0625 C-0.7359375 12.0315625 -0.7359375 12.0315625 1 12 C1.33 13.32 1.66 14.64 2 16 C-1.20531421 17.6026571 -4.52218208 17.48207377 -8 17 C-11.33219018 14.86398066 -11.89315459 13.3672811 -13 9.5625 C-13 6 -13 6 -11.1875 3.125 C-7.51735211 -0.44028653 -5.03334821 -0.17976244 0 0 Z " fill="#C89F23" transform="translate(999,19)"/>
<path d="M0 0 C0.66 0.33 1.32 0.66 2 1 C1.67 2.32 1.34 3.64 1 5 C-0.134375 4.979375 -1.26875 4.95875 -2.4375 4.9375 C-5.81575674 4.58422523 -5.81575674 4.58422523 -7 6 C-7.16666667 8.5 -7.16666667 8.5 -7 11 C-5.81575674 12.41577477 -5.81575674 12.41577477 -2.4375 12.0625 C-0.7359375 12.0315625 -0.7359375 12.0315625 1 12 C1.33 13.32 1.66 14.64 2 16 C-1.21102274 17.60551137 -4.51699208 17.46807221 -8 17 C-10.5 15.5625 -10.5 15.5625 -12 13 C-12.60318106 9.86920307 -12.65375511 7.12540822 -12 4 C-8.518776 -0.32515709 -5.35485505 -0.505175 0 0 Z " fill="#CEA023" transform="translate(936,19)"/>
<path d="M0 0 C2.31 0 4.62 0 7 0 C7.08706892 3.27066566 7.14041241 6.54103365 7.1875 9.8125 C7.22520508 11.2056543 7.22520508 11.2056543 7.26367188 12.62695312 C7.27817383 13.9659668 7.27817383 13.9659668 7.29296875 15.33203125 C7.31653442 16.56530151 7.31653442 16.56530151 7.34057617 17.82348633 C6.91439796 20.54705535 6.2078802 21.38651276 4 23 C0.3125 23.6875 0.3125 23.6875 -3 24 C-3 22.68 -3 21.36 -3 20 C-1.35 20 0.3 20 2 20 C2.33 14.72 2.66 9.44 3 4 C2.01 4 1.02 4 0 4 C0 2.68 0 1.36 0 0 Z " fill="#D09F23" transform="translate(959,19)"/>
<path d="M0 0 C0 1.98 0 3.96 0 6 C1.32 6.33 2.64 6.66 4 7 C2.82421252 10.52736243 2.12452867 11.10883791 -1 13 C-3.31347872 13.73260159 -5.645752 14.411438 -8 15 C-8 13.02 -8 11.04 -8 9 C-7.34 9 -6.68 9 -6 9 C-6 8.34 -6 7.68 -6 7 C-6.99 7 -7.98 7 -9 7 C-8 5 -7 3 -6 1 C-2 0 -2 0 0 0 Z " fill="#048442" transform="translate(1440,845)"/>
<path d="M0 0 C0.99 0 1.98 0 3 0 C3.02505615 0.59014893 3.0501123 1.18029785 3.07592773 1.78833008 C3.19200052 4.46326814 3.31467572 7.1378638 3.4375 9.8125 C3.47681641 10.74126953 3.51613281 11.67003906 3.55664062 12.62695312 C3.59853516 13.51962891 3.64042969 14.41230469 3.68359375 15.33203125 C3.72025146 16.15421143 3.75690918 16.9763916 3.79467773 17.82348633 C3.93427772 20.17905178 3.93427772 20.17905178 5 23 C3.34385343 23.38218767 1.67542976 23.71395102 0 24 C-1.65394117 22.34605883 -1.12999683 20.39684587 -1.1328125 18.125 C-1.13410156 17.14015625 -1.13539063 16.1553125 -1.13671875 15.140625 C-1.13285156 14.10421875 -1.12898437 13.0678125 -1.125 12 C-1.13080078 10.44539063 -1.13080078 10.44539063 -1.13671875 8.859375 C-1.13542969 7.87453125 -1.13414062 6.8896875 -1.1328125 5.875 C-1.13168457 4.96492188 -1.13055664 4.05484375 -1.12939453 3.1171875 C-1 1 -1 1 0 0 Z " fill="#D2A022" transform="translate(900,12)"/>
<path d="M0 0 C3 2 3 2 3.875 3.9375 C4 6 4 6 2.5625 7.75 C1.7890625 8.36875 1.7890625 8.36875 1 9 C2.32 9.66 3.64 10.32 5 11 C4.67 11.66 4.34 12.32 4 13 C1.69 12.67 -0.62 12.34 -3 12 C-3 11.34 -3 10.68 -3 10 C-3.61875 9.87625 -4.2375 9.7525 -4.875 9.625 C-7 9 -7 9 -9 7 C-8.625 4.875 -8.625 4.875 -8 3 C-7.34 3.33 -6.68 3.66 -6 4 C-6 4.66 -6 5.32 -6 6 C-4.68 5.67 -3.36 5.34 -2 5 C-2.33 4.01 -2.66 3.02 -3 2 C-2.01 2 -1.02 2 0 2 C0 1.34 0 0.68 0 0 Z " fill="#018442" transform="translate(1652,723)"/>
<path d="M0 0 C0.99 0 1.98 0 3 0 C3.33 0.99 3.66 1.98 4 3 C4.66 2.01 5.32 1.02 6 0 C6.66 0 7.32 0 8 0 C8.33 1.32 8.66 2.64 9 4 C9.66 2.68 10.32 1.36 11 0 C11.99 0.33 12.98 0.66 14 1 C12.35 4.3 10.7 7.6 9 11 C8.34 11 7.68 11 7 11 C6.67 9.68 6.34 8.36 6 7 C5.319375 7.99 5.319375 7.99 4.625 9 C4.08875 9.66 3.5525 10.32 3 11 C2.34 11 1.68 11 1 11 C0.67 7.37 0.34 3.74 0 0 Z " fill="#CEEBE0" transform="translate(866,68)"/>
<path d="M0 0 C1.98 0 3.96 0 6 0 C6 0.99 6 1.98 6 3 C7.32 3.33 8.64 3.66 10 4 C10 4.66 10 5.32 10 6 C10.66 6 11.32 6 12 6 C13.125 10.75 13.125 10.75 12 13 C10.68 12.67 9.36 12.34 8 12 C8 11.01 8 10.02 8 9 C7.34 9 6.68 9 6 9 C6 8.34 6 7.68 6 7 C4.68 7 3.36 7 2 7 C2 6.01 2 5.02 2 4 C1.34 4 0.68 4 0 4 C0 2.68 0 1.36 0 0 Z " fill="#018B44" transform="translate(1298,446)"/>
<path d="M0 0 C2.375 -0.125 2.375 -0.125 5 0 C7 2 7 2 7.25 5.5 C7 9 7 9 5 11 C2.4375 11.1875 2.4375 11.1875 0 11 C-1.89885096 9.10114904 -1.12367506 6.42752097 -1.1328125 3.91015625 C-1 2 -1 2 0 0 Z " fill="#E1F1E6" transform="translate(982,218)"/>
<path d="M0 0 C2.4375 0.1875 2.4375 0.1875 3.4375 1.1875 C3.71064815 6.92361111 3.71064815 6.92361111 3.4375 9.1875 C2.7775 9.8475 2.1175 10.5075 1.4375 11.1875 C-3.11805556 10.63194444 -3.11805556 10.63194444 -4.5625 9.1875 C-4.75 5.75 -4.75 5.75 -4.5625 2.1875 C-2.5625 0.1875 -2.5625 0.1875 0 0 Z " fill="#E7F7ED" transform="translate(994.5625,217.8125)"/>
<path d="M0 0 C4.51219512 -0.36585366 4.51219512 -0.36585366 6.75 1.3125 C8 3 8 3 9 6 C11.01508358 6.73323796 11.01508358 6.73323796 13 7 C12.67 7.99 12.34 8.98 12 10 C7.12335991 10.34833144 4.22949995 9.41685712 0 7 C0 4.69 0 2.38 0 0 Z " fill="#018041" transform="translate(1691,440)"/>
<path d="M0 0 C0.66 0 1.32 0 2 0 C2 0.66 2 1.32 2 2 C3.32 2.33 4.64 2.66 6 3 C6 3.66 6 4.32 6 5 C6.66 5 7.32 5 8 5 C8.33 6.32 8.66 7.64 9 9 C10.32 8.67 11.64 8.34 13 8 C13 9.32 13 10.64 13 12 C10.5 12.4375 10.5 12.4375 7 12 C4.08465023 9.91536818 1.53782875 7.52494637 -1 5 C-0.67 3.35 -0.34 1.7 0 0 Z " fill="#018341" transform="translate(1866,898)"/>
<path d="M0 0 C0.66 0 1.32 0 2 0 C2.08159574 4.16138263 1.98248524 7.9472484 1 12 C-1.33294775 12.04241723 -3.66702567 12.04092937 -6 12 C-7 11 -7 11 -7.1875 8.5625 C-7 6 -7 6 -5 4 C-2.375 3.875 -2.375 3.875 0 4 C0 2.68 0 1.36 0 0 Z " fill="#E4F5EF" transform="translate(1023,67)"/>
<path d="M0 0 C2.97 0.33 5.94 0.66 9 1 C9.83220851 4.97610732 10.23098442 8.0832314 9 12 C8.01 12.495 8.01 12.495 7 13 C6.67 11.35 6.34 9.7 6 8 C5.01 7.67 4.02 7.34 3 7 C0 2.66666667 0 2.66666667 0 0 Z " fill="#0B884B" transform="translate(1237,615)"/>
<path d="M0 0 C3.73487777 0.4979837 5.81237635 0.87491756 9 3 C9 6.52032428 8.29648649 7.4385343 6 10 C5.34 10 4.68 10 4 10 C4 10.66 4 11.32 4 12 C3.01 12 2.02 12 1 12 C1.33 8.7 1.66 5.4 2 2 C1.34 2 0.68 2 0 2 C0 1.34 0 0.68 0 0 Z " fill="#048343" transform="translate(1098,617)"/>
<path d="M0 0 C0.66 0 1.32 0 2 0 C2 3.96 2 7.92 2 12 C-0.33294775 12.04241723 -2.66702567 12.04092937 -5 12 C-6 11 -6 11 -6.1875 8.5625 C-6 6 -6 6 -4 4 C-2.68 4 -1.36 4 0 4 C0 2.68 0 1.36 0 0 Z " fill="#FCFBED" transform="translate(948,217)"/>
<path d="M0 0 C2.31 0.33 4.62 0.66 7 1 C7.09765625 7.15234375 7.09765625 7.15234375 7 9 C6 10 6 10 2.9375 10.0625 C1.968125 10.041875 0.99875 10.02125 0 10 C0 6.7 0 3.4 0 0 Z " fill="#6F8928" transform="translate(1054,178)"/>
<path d="M0 0 C0.66 0 1.32 0 2 0 C2 3.96 2 7.92 2 12 C-0.31 12 -2.62 12 -5 12 C-5.625 9.125 -5.625 9.125 -6 6 C-5.34 5.34 -4.68 4.68 -4 4 C-2.68 4 -1.36 4 0 4 C0 2.68 0 1.36 0 0 Z " fill="#A1D1BF" transform="translate(956,102)"/>
<path d="M0 0 C2.31 0 4.62 0 7 0 C7.125 2.875 7.125 2.875 7 6 C6.34 6.66 5.68 7.32 5 8 C3.68 8 2.36 8 1 8 C1 8.99 1 9.98 1 11 C0.01 11 -0.98 11 -2 11 C-1.34 7.37 -0.68 3.74 0 0 Z " fill="#ACCAB1" transform="translate(931,71)"/>
<path d="M0 0 C0.66 0 1.32 0 2 0 C2.33 0.99 2.66 1.98 3 3 C3.33 2.01 3.66 1.02 4 0 C4.99 0 5.98 0 7 0 C7.33 0.99 7.66 1.98 8 3 C8.99 2.01 9.98 1.02 11 0 C10.67 3.3 10.34 6.6 10 10 C9.01 10 8.02 10 7 10 C6.67 8.68 6.34 7.36 6 6 C5.34 7.32 4.68 8.64 4 10 C3.34 10 2.68 10 2 10 C1.34 6.7 0.68 3.4 0 0 Z " fill="#3A792C" transform="translate(1008,178)"/>
<path d="M0 0 C0.99 0.33 1.98 0.66 3 1 C3 2.98 3 4.96 3 7 C1.02 7 -0.96 7 -3 7 C-2.25 2.25 -2.25 2.25 0 0 Z M-4 7 C-3.67 7 -3.34 7 -3 7 C-3 8.98 -3 10.96 -3 13 C-4.98 13.66 -6.96 14.32 -9 15 C-9 14.34 -9 13.68 -9 13 C-8.34 13 -7.68 13 -7 13 C-7 12.34 -7 11.68 -7 11 C-7.66 11 -8.32 11 -9 11 C-9 10.01 -9 9.02 -9 8 C-8.01 8 -7.02 8 -6 8 C-6 8.99 -6 9.98 -6 11 C-5.34 11 -4.68 11 -4 11 C-4 9.68 -4 8.36 -4 7 Z " fill="#0A7E42" transform="translate(1052,533)"/>
<path d="M0 0 C1.81242052 -0.02687279 3.62495233 -0.04633715 5.4375 -0.0625 C6.44683594 -0.07410156 7.45617187 -0.08570313 8.49609375 -0.09765625 C11 0 11 0 12 1 C12.04092937 3.33297433 12.04241723 5.66705225 12 8 C11.34 8 10.68 8 10 8 C9.87625 7.195625 9.7525 6.39125 9.625 5.5625 C9.41875 4.716875 9.2125 3.87125 9 3 C8.34 2.67 7.68 2.34 7 2 C7 3.98 7 5.96 7 8 C6.34 8 5.68 8 5 8 C5 6.02 5 4.04 5 2 C4.01 2.495 4.01 2.495 3 3 C2.34444881 5.52733235 2.34444881 5.52733235 2 8 C1.34 8 0.68 8 0 8 C0 5.36 0 2.72 0 0 Z " fill="#E9FAF1" transform="translate(948,141)"/>
<path d="M0 0 C3.625 0.375 3.625 0.375 7 1 C7.33 2.65 7.66 4.3 8 6 C3.64285714 8.17857143 3.64285714 8.17857143 0.75 7.375 C-1 6 -1 6 -1.875 4 C-1.91625 3.34 -1.9575 2.68 -2 2 C-1.34 1.34 -0.68 0.68 0 0 Z " fill="#018547" transform="translate(1824,703)"/>
<path d="M0 0 C0.66 0 1.32 0 2 0 C2.33 1.65 2.66 3.3 3 5 C3.66 5 4.32 5 5 5 C5.33 3.35 5.66 1.7 6 0 C6.99 0 7.98 0 9 0 C9 3.3 9 6.6 9 10 C8.34 10 7.68 10 7 10 C6.67 9.34 6.34 8.68 6 8 C5.67 8.66 5.34 9.32 5 10 C4.34 10 3.68 10 3 10 C2.67 9.01 2.34 8.02 2 7 C1.34 7.99 0.68 8.98 0 10 C0 6.7 0 3.4 0 0 Z " fill="#20762B" transform="translate(896,178)"/>
<path d="M0 0 C0.6875 2.3125 0.6875 2.3125 1 5 C-0.125 6.8125 -0.125 6.8125 -2 8 C-4.6875 8.1875 -4.6875 8.1875 -7 8 C-7.6875 5.6875 -7.6875 5.6875 -8 3 C-5.90994325 -0.36731366 -3.75103888 -0.30413829 0 0 Z " fill="#DDF2ED" transform="translate(997,71)"/>
<path d="M0 0 C1.875 0.3125 1.875 0.3125 4 1 C4.66 1.99 5.32 2.98 6 4 C6.99 4.33 7.98 4.66 9 5 C9.6875 7.0625 9.6875 7.0625 10 9 C9.01 9.33 8.02 9.66 7 10 C6.67 9.34 6.34 8.68 6 8 C3.67843403 7.59270772 1.3431213 7.25561323 -1 7 C-1.625 5.1875 -1.625 5.1875 -2 3 C-1.34 2.01 -0.68 1.02 0 0 Z " fill="#018B48" transform="translate(1296,778)"/>
<path d="M0 0 C1.1446875 0.0928125 1.1446875 0.0928125 2.3125 0.1875 C1.9825 1.5075 1.6525 2.8275 1.3125 4.1875 C-0.3375 4.1875 -1.9875 4.1875 -3.6875 4.1875 C-4.0175 5.8375 -4.3475 7.4875 -4.6875 9.1875 C-5.3475 9.1875 -6.0075 9.1875 -6.6875 9.1875 C-6.6875 9.8475 -6.6875 10.5075 -6.6875 11.1875 C-7.6775 11.1875 -8.6675 11.1875 -9.6875 11.1875 C-9.6875 9.2075 -9.6875 7.2275 -9.6875 5.1875 C-9.089375 4.919375 -8.49125 4.65125 -7.875 4.375 C-5.64457307 3.32569956 -5.64457307 3.32569956 -4.25 1.5625 C-2.6875 0.1875 -2.6875 0.1875 0 0 Z " fill="#097742" transform="translate(1825.6875,283.8125)"/>
<path d="M0 0 C2.4375 0.1875 2.4375 0.1875 3.4375 1.1875 C3.5625 4.1875 3.5625 4.1875 3.4375 7.1875 C2.4375 8.1875 2.4375 8.1875 -0.5625 8.3125 C-3.5625 8.1875 -3.5625 8.1875 -4.5625 7.1875 C-4.75 4.75 -4.75 4.75 -4.5625 2.1875 C-2.5625 0.1875 -2.5625 0.1875 0 0 Z " fill="#ECF3E0" transform="translate(932.5625,220.8125)"/>
<path d="M0 0 C1.32 0 2.64 0 4 0 C4.625 2.375 4.625 2.375 5 5 C3 7 3 7 1.125 7.23046875 C0.073125 7.20919922 0.073125 7.20919922 -1 7.1875 C-1.70125 7.18105469 -2.4025 7.17460938 -3.125 7.16796875 C-5 7 -5 7 -7 6 C-6.67 5.01 -6.34 4.02 -6 3 C-3.5 1.875 -3.5 1.875 -1 1 C-0.67 0.67 -0.34 0.34 0 0 Z " fill="#018440" transform="translate(859,527)"/>
<path d="M0 0 C1.32 0 2.64 0 4 0 C4 0.66 4 1.32 4 2 C5.32 2.66 6.64 3.32 8 4 C7.34 5.65 6.68 7.3 6 9 C-0.71186441 6.55932203 -0.71186441 6.55932203 -2.0625 3.9375 C-2 2 -2 2 0 0 Z " fill="#01813F" transform="translate(1381,273)"/>
<path d="M0 0 C2.0625 0.4375 2.0625 0.4375 4 1 C4 1.99 4 2.98 4 4 C2.68 3.67 1.36 3.34 0 3 C0 3.66 0 4.32 0 5 C1.32 5.33 2.64 5.66 4 6 C4.6875 8.3125 4.6875 8.3125 5 11 C3.6875 12.8125 3.6875 12.8125 2 14 C1.34 14 0.68 14 0 14 C-0.66 13.01 -1.32 12.02 -2 11 C-1.67 10.01 -1.34 9.02 -1 8 C0.485 8.99 0.485 8.99 2 10 C1.319375 9.443125 0.63875 8.88625 -0.0625 8.3125 C-2 6 -2 6 -1.8125 3.3125 C-1 1 -1 1 0 0 Z " fill="#EAF0DB" transform="translate(965,217)"/>
<path d="M0 0 C0.99 0 1.98 0 3 0 C2.67 1.65 2.34 3.3 2 5 C0.68 4.67 -0.64 4.34 -2 4 C-2.33 4.99 -2.66 5.98 -3 7 C-6 9 -6 9 -9 9 C-9 6.69 -9 4.38 -9 2 C-6.94921875 1.77213542 -4.8984375 1.54427083 -2.84765625 1.31640625 C-0.98859771 1.18113386 -0.98859771 1.18113386 0 0 Z " fill="#097843" transform="translate(1591,192)"/>
<path d="M0 0 C0.99 0 1.98 0 3 0 C3.33 1.32 3.66 2.64 4 4 C3.34 4 2.68 4 2 4 C2 5.32 2 6.64 2 8 C3.32 8.33 4.64 8.66 6 9 C5.67 9.66 5.34 10.32 5 11 C3.68 10.34 2.36 9.68 1 9 C1 8.34 1 7.68 1 7 C-2.3 6.01 -5.6 5.02 -9 4 C-8 2 -8 2 -6.1875 1.3125 C-3.81180233 0.97311462 -2.26664171 1.27143659 0 2 C0 1.34 0 0.68 0 0 Z " fill="#018443" transform="translate(1305,672)"/>
<path d="M0 0 C1.98 0 3.96 0 6 0 C6.33 1.65 6.66 3.3 7 5 C7.66 5 8.32 5 9 5 C8.67 6.32 8.34 7.64 8 9 C5.3364031 8.64005447 3.41816548 8.28838998 1.1875 6.75 C-0.39364795 4.41988723 -0.22337696 2.75498245 0 0 Z " fill="#0D834C" transform="translate(1815,545)"/>
<path d="M0 0 C1.65 0 3.3 0 5 0 C5 1.32 5 2.64 5 4 C5.66 4 6.32 4 7 4 C7 4.66 7 5.32 7 6 C7.99 6 8.98 6 10 6 C9.67 6.99 9.34 7.98 9 9 C2.56777857 8.51454933 2.56777857 8.51454933 0 6.1875 C-1 4 -1 4 -0.6875 1.75 C-0.460625 1.1725 -0.23375 0.595 0 0 Z " fill="#0E824C" transform="translate(1684,319)"/>
<path d="M0 0 C2.4375 0.1875 2.4375 0.1875 3.4375 1.1875 C3.625 3.625 3.625 3.625 3.4375 6.1875 C1.4375 8.1875 1.4375 8.1875 -1.125 8.375 C-3.5625 8.1875 -3.5625 8.1875 -4.5625 7.1875 C-4.75 4.75 -4.75 4.75 -4.5625 2.1875 C-2.5625 0.1875 -2.5625 0.1875 0 0 Z " fill="#C2DECD" transform="translate(920.5625,70.8125)"/>
<path d="M0 0 C2.5625 0.1875 2.5625 0.1875 4.5625 2.1875 C4.1875 5.3125 4.1875 5.3125 3.5625 8.1875 C0.6875 8.3125 0.6875 8.3125 -2.4375 8.1875 C-3.0975 7.5275 -3.7575 6.8675 -4.4375 6.1875 C-3.71780303 0.28598485 -3.71780303 0.28598485 0 0 Z " fill="#D9EEE5" transform="translate(914.4375,220.8125)"/>
<path d="M0 0 C0.94875 0.04125 1.8975 0.0825 2.875 0.125 C2.545 2.765 2.215 5.405 1.875 8.125 C-0.435 8.125 -2.745 8.125 -5.125 8.125 C-5.25 5.25 -5.25 5.25 -5.125 2.125 C-3.125 0.125 -3.125 0.125 0 0 Z " fill="#CAE1D0" transform="translate(950.125,70.875)"/>
<path d="M0 0 C0.94875 0.04125 1.8975 0.0825 2.875 0.125 C2.545 2.765 2.215 5.405 1.875 8.125 C-0.435 8.125 -2.745 8.125 -5.125 8.125 C-5.25 5.25 -5.25 5.25 -5.125 2.125 C-3.125 0.125 -3.125 0.125 0 0 Z " fill="#CAE1D1" transform="translate(884.125,70.875)"/>
<path d="M0 0 C0.66 0 1.32 0 2 0 C2 0.66 2 1.32 2 2 C3.98 2 5.96 2 8 2 C6.64615385 8.52307692 6.64615385 8.52307692 3.375 10.9375 C2.59125 11.288125 1.8075 11.63875 1 12 C0.375 10.125 0.375 10.125 0 8 C0.66 7.34 1.32 6.68 2 6 C1.34 5.67 0.68 5.34 0 5 C0 3.35 0 1.7 0 0 Z " fill="#048847" transform="translate(876,725)"/>
<path d="M0 0 C3.3 0.99 6.6 1.98 10 3 C9.67 4.32 9.34 5.64 9 7 C8.34 7 7.68 7 7 7 C6.34 8.32 5.68 9.64 5 11 C4.67 10.01 4.34 9.02 4 8 C4.33 7.34 4.66 6.68 5 6 C4.38125 5.9175 3.7625 5.835 3.125 5.75 C1 5 1 5 -0.25 2.9375 C-0.62125 1.9784375 -0.62125 1.9784375 -1 1 C-0.67 0.67 -0.34 0.34 0 0 Z " fill="#018A41" transform="translate(1192,571)"/>
<path d="M0 0 C1.32 0 2.64 0 4 0 C4.66 1.98 5.32 3.96 6 6 C4.68 6 3.36 6 2 6 C2 5.34 2 4.68 2 4 C1.34 4 0.68 4 0 4 C0 5.65 0 7.3 0 9 C-1.32 9 -2.64 9 -4 9 C-4 7.02 -4 5.04 -4 3 C-3.01 3 -2.02 3 -1 3 C-0.67 2.01 -0.34 1.02 0 0 Z " fill="#018442" transform="translate(1044,813)"/>
<path d="M0 0 C1.65 0 3.3 0 5 0 C4.67 0.99 4.34 1.98 4 3 C3.34 2.67 2.68 2.34 2 2 C2 2.66 2 3.32 2 4 C3.32 4.66 4.64 5.32 6 6 C5.67 7.65 5.34 9.3 5 11 C3.02 11 1.04 11 -1 11 C-1 10.01 -1 9.02 -1 8 C0.32 8.33 1.64 8.66 3 9 C2.319375 8.443125 1.63875 7.88625 0.9375 7.3125 C0.298125 6.549375 -0.34125 5.78625 -1 5 C-0.75 2.25 -0.75 2.25 0 0 Z " fill="#D4EFEA" transform="translate(931,138)"/>
<path d="M0 0 C-0.33 0.99 -0.66 1.98 -1 3 C-1.99 3 -2.98 3 -4 3 C-4 4.65 -4 6.3 -4 8 C-2.35 8 -0.7 8 1 8 C1 8.99 1 9.98 1 11 C-2.375 11.125 -2.375 11.125 -6 11 C-8 9 -8 9 -8.3125 6.0625 C-8 3 -8 3 -6.8125 1.125 C-4.43963721 -0.34781139 -2.74086056 -0.22223194 0 0 Z " fill="#D6EEE6" transform="translate(933,103)"/>
<path d="M0 0 C0 1.32 0 2.64 0 4 C-1.8253125 4.185625 -1.8253125 4.185625 -3.6875 4.375 C-7.06479059 4.78891306 -9.89756695 5.54573451 -13 7 C-13 5.68 -13 4.36 -13 3 C-8.44573816 0.33409063 -5.26053037 -0.31563182 0 0 Z " fill="#078242" transform="translate(1187,796)"/>
<path d="M0 0 C2.00720923 0.28674418 4.0085944 0.61866701 6 1 C6 1.66 6 2.32 6 3 C7.65 3.33 9.3 3.66 11 4 C11 5.32 11 6.64 11 8 C8.625 8.1875 8.625 8.1875 6 8 C5.34 7.01 4.68 6.02 4 5 C3.319375 4.835 2.63875 4.67 1.9375 4.5 C1.298125 4.335 0.65875 4.17 0 4 C-0.33 3.01 -0.66 2.02 -1 1 C-0.67 0.67 -0.34 0.34 0 0 Z " fill="#057F45" transform="translate(1443,231)"/>
<path d="M0 0 C2.97 0 5.94 0 9 0 C8.67 1.98 8.34 3.96 8 6 C4.98968256 6.93423645 4.13349732 7.04449911 1 6 C0.67 4.02 0.34 2.04 0 0 Z " fill="#0D7D45" transform="translate(1739,602)"/>
<path d="M0 0 C0.433125 0.495 0.86625 0.99 1.3125 1.5 C2.99740483 3.33218192 2.99740483 3.33218192 6 3 C6 5 6 7 6 9 C5.34 9 4.68 9 4 9 C4 10.65 4 12.3 4 14 C3.67 14 3.34 14 3 14 C3 12.02 3 10.04 3 8 C1.35 8 -0.3 8 -2 8 C-2.33 7.01 -2.66 6.02 -3 5 C-1.5625 2.3125 -1.5625 2.3125 0 0 Z " fill="#096230" transform="translate(1601,13)"/>
<path d="M0 0 C1.65 0 3.3 0 5 0 C5.6875 2.25 5.6875 2.25 6 5 C4.5625 7.3125 4.5625 7.3125 3 9 C3.99 9 4.98 9 6 9 C6 9.66 6 10.32 6 11 C3.69 11 1.38 11 -1 11 C0.19899698 7.9168649 1.47700477 4.93720508 3 2 C1.68 2.33 0.36 2.66 -1 3 C-0.67 2.01 -0.34 1.02 0 0 Z " fill="#DFEAD4" transform="translate(973,218)"/>
<path d="M0 0 C2.92879371 0.62759865 5.36095629 1.58622659 8 3 C8 3.66 8 4.32 8 5 C8.99 5.33 9.98 5.66 11 6 C10.67 6.99 10.34 7.98 10 9 C8.70414084 8.57507874 7.4133956 8.13454118 6.125 7.6875 C5.40570312 7.44386719 4.68640625 7.20023437 3.9453125 6.94921875 C2 6 2 6 0 3 C0 2.01 0 1.02 0 0 Z " fill="#017F41" transform="translate(1611,293)"/>
<path d="M0 0 C0.99 0 1.98 0 3 0 C3.99 3.3 4.98 6.6 6 10 C5.34 10 4.68 10 4 10 C4 9.34 4 8.68 4 8 C2.68 8 1.36 8 0 8 C0 8.66 0 9.32 0 10 C-0.66 10 -1.32 10 -2 10 C-1.54177532 6.53058454 -1.10868317 3.32604951 0 0 Z " fill="#417C2B" transform="translate(846,178)"/>
<path d="M0 0 C0.99 0.33 1.98 0.66 3 1 C3.73046875 3.06640625 3.73046875 3.06640625 4.1875 5.5625 C4.34605469 6.38878906 4.50460937 7.21507812 4.66796875 8.06640625 C4.77753906 8.70449219 4.88710937 9.34257812 5 10 C4.34 10 3.68 10 3 10 C3 9.34 3 8.68 3 8 C1.68 8 0.36 8 -1 8 C-1 8.66 -1 9.32 -1 10 C-1.66 10 -2.32 10 -3 10 C-2.69201674 8.51988629 -2.378482 7.04092675 -2.0625 5.5625 C-1.88847656 4.73878906 -1.71445313 3.91507813 -1.53515625 3.06640625 C-1 1 -1 1 0 0 Z " fill="#5F8329" transform="translate(1037,178)"/>
<path d="M0 0 C1.66611905 -0.042721 3.33382885 -0.04063832 5 0 C6 1 6 1 6.0625 4.5625 C6.041875 5.696875 6.02125 6.83125 6 8 C3.69 8 1.38 8 -1 8 C-0.67 5.36 -0.34 2.72 0 0 Z " fill="#E4F2E9" transform="translate(936,106)"/>
<path d="M0 0 C2.64 0 5.28 0 8 0 C8.6875 1.8125 8.6875 1.8125 9 4 C7.8125 5.8125 7.8125 5.8125 6 7 C3.8125 6.6875 3.8125 6.6875 2 6 C2 5.34 2 4.68 2 4 C1.34 4 0.68 4 0 4 C0 2.68 0 1.36 0 0 Z " fill="#11824C" transform="translate(1394,374)"/>
<path d="M0 0 C1.65 0 3.3 0 5 0 C5.66 1.32 6.32 2.64 7 4 C4.03 6.475 4.03 6.475 1 9 C-1 6 -1 6 -0.625 2.8125 C-0.41875 1.884375 -0.2125 0.95625 0 0 Z " fill="#0C7236" transform="translate(1271,434)"/>
<path d="M0 0 C0.99 0 1.98 0 3 0 C3 1.98 3 3.96 3 6 C3.66 5.67 4.32 5.34 5 5 C5.65555119 2.47266765 5.65555119 2.47266765 6 0 C6.66 0 7.32 0 8 0 C8 2.64 8 5.28 8 8 C5.66705225 8.04241723 3.33297433 8.04092937 1 8 C0 7 0 7 -0.0625 3.4375 C-0.041875 2.303125 -0.02125 1.16875 0 0 Z " fill="#EBFAF1" transform="translate(938,141)"/>
<path d="M0 0 C0.66 0 1.32 0 2 0 C2 0.99 2 1.98 2 3 C2.99 2.01 3.98 1.02 5 0 C5.99 0.33 6.98 0.66 8 1 C7.26674793 2.48754006 6.51273922 3.96486192 5.75 5.4375 C5.33234375 6.26121094 4.9146875 7.08492188 4.484375 7.93359375 C3 10 3 10 0.828125 10.78515625 C-0.07679688 10.89150391 -0.07679688 10.89150391 -1 11 C-1 9 -1 9 1 7 C0.67673447 3.40320934 0.67673447 3.40320934 0 0 Z " fill="#DEF0E0" transform="translate(955,71)"/>
<path d="M0 0 C2.31 0 4.62 0 7 0 C7 2.64 7 5.28 7 8 C6.01 8 5.02 8 4 8 C4.33 6.02 4.66 4.04 5 2 C4.01 2.495 4.01 2.495 3 3 C2.34444881 5.52733235 2.34444881 5.52733235 2 8 C1.01 8 0.02 8 -1 8 C-0.67 5.36 -0.34 2.72 0 0 Z " fill="#D8ECDB" transform="translate(1008,71)"/>
<path d="M0 0 C0.391875 0.45375 0.78375 0.9075 1.1875 1.375 C2.96382139 3.17366094 2.96382139 3.17366094 5.625 3.9375 C8 5 8 5 8.8125 7.125 C8.874375 7.74375 8.93625 8.3625 9 9 C8.01 9.33 7.02 9.66 6 10 C5.01 9.34 4.02 8.68 3 8 C3 7.34 3 6.68 3 6 C1.68 5.67 0.36 5.34 -1 5 C-0.67 3.35 -0.34 1.7 0 0 Z " fill="#018E47" transform="translate(1131,706)"/>
<path d="M0 0 C2.0625 1.6875 2.0625 1.6875 4 4 C3.67 5.65 3.34 7.3 3 9 C-0.3 8.34 -3.6 7.68 -7 7 C-4.66666667 4.66666667 -2.33333333 2.33333333 0 0 Z " fill="#01833F" transform="translate(1082,617)"/>
<path d="M0 0 C0 0.66 0 1.32 0 2 C0.66 2.66 1.32 3.32 2 4 C0 6 0 6 -3 6.1875 C-6 6 -6 6 -8 5 C-6.19780722 -0.02039417 -5.34443412 -1.60333024 0 0 Z " fill="#0B8647" transform="translate(1129,181)"/>
<path d="M0 0 C-0.33 1.65 -0.66 3.3 -1 5 C-1.33 4.34 -1.66 3.68 -2 3 C-2.66 3 -3.32 3 -4 3 C-4.33 4.98 -4.66 6.96 -5 9 C-5.99 9 -6.98 9 -8 9 C-8.66 7.35 -9.32 5.7 -10 4 C-4.5 0 -4.5 0 0 0 Z " fill="#028945" transform="translate(1549,863)"/>
<path d="M0 0 C0.99 0.33 1.98 0.66 3 1 C-1.31353768 6.79246488 -1.31353768 6.79246488 -4.6875 7.8125 C-5.450625 7.874375 -6.21375 7.93625 -7 8 C-7.99 8.495 -7.99 8.495 -9 9 C-10.5 7.6875 -10.5 7.6875 -12 6 C-12 5.01 -12 4.02 -12 3 C-10.68 3 -9.36 3 -8 3 C-8 3.66 -8 4.32 -8 5 C-7.4225 4.67 -6.845 4.34 -6.25 4 C-4 3 -4 3 0 3 C0 2.01 0 1.02 0 0 Z " fill="#068043" transform="translate(1447,452)"/>
<path d="M0 0 C2.03301335 0.25816043 4.06615161 0.5205469 6.08984375 0.84375 C8.08573705 1.1732336 8.08573705 1.1732336 10 0 C9.67 1.32 9.34 2.64 9 4 C7.35 3.67 5.7 3.34 4 3 C4 4.65 4 6.3 4 8 C2.68 8 1.36 8 0 8 C-0.38063221 5.6739143 -0.71269945 3.33944736 -1 1 C-0.67 0.67 -0.34 0.34 0 0 Z " fill="#007D3E" transform="translate(1635,267)"/>
<path d="M0 0 C0.99 0.33 1.98 0.66 3 1 C2.67 2.65 2.34 4.3 2 6 C2.66 5.67 3.32 5.34 4 5 C4.65555119 2.47266765 4.65555119 2.47266765 5 0 C5.99 0 6.98 0 8 0 C7.67 2.64 7.34 5.28 7 8 C4.69 8 2.38 8 0 8 C-1.09658936 4.71023192 -0.79953138 3.28696233 0 0 Z " fill="#DFF3EE" transform="translate(999,71)"/>
<path d="M0 0 C1.32 0.66 2.64 1.32 4 2 C3.4375 3.875 3.4375 3.875 2 6 C-1.5 7.3125 -1.5 7.3125 -5 8 C-5.66 7.67 -6.32 7.34 -7 7 C-6.67 5.68 -6.34 4.36 -6 3 C-4.68 3.66 -3.36 4.32 -2 5 C-1.855625 4.360625 -1.71125 3.72125 -1.5625 3.0625 C-1 1 -1 1 0 0 Z " fill="#018542" transform="translate(1354,451)"/>
<path d="M0 0 C2.1875 -0.3125 2.1875 -0.3125 5 0 C8.22968679 2.64247101 10.52613972 4.73525752 11 9 C9.68 9 8.36 9 7 9 C7 8.34 7 7.68 7 7 C6.01 6.67 5.02 6.34 4 6 C3.34 5.34 2.68 4.68 2 4 C2 3.01 2 2.02 2 1 C1.34 0.67 0.68 0.34 0 0 Z " fill="#128240" transform="translate(848,345)"/>
<path d="M0 0 C3 1 3 1 4.1875 3.0625 C4.455625 3.701875 4.72375 4.34125 5 5 C5.33 3.35 5.66 1.7 6 0 C6.33 0 6.66 0 7 0 C7 3.3 7 6.6 7 10 C6.34 10 5.68 10 5 10 C4.34 8.68 3.68 7.36 3 6 C2.67 7.32 2.34 8.64 2 10 C1.34 10 0.68 10 0 10 C0 6.7 0 3.4 0 0 Z " fill="#22742D" transform="translate(990,178)"/>
<path d="M0 0 C2.31 0 4.62 0 7 0 C6.67 2.64 6.34 5.28 6 8 C5.34 8 4.68 8 4 8 C4 6.02 4 4.04 4 2 C3.34 2 2.68 2 2 2 C1.67 3.98 1.34 5.96 1 8 C0.34 8 -0.32 8 -1 8 C-0.67 5.36 -0.34 2.72 0 0 Z " fill="#DAF0E4" transform="translate(889,71)"/>
<path d="M0 0 C1.65 0.33 3.3 0.66 5 1 C5.33 2.65 5.66 4.3 6 6 C4.02 6.99 4.02 6.99 2 8 C0.4375 6.8125 0.4375 6.8125 -1 5 C-0.6875 2.3125 -0.6875 2.3125 0 0 Z " fill="#018544" transform="translate(746,596)"/>
<path d="M0 0 C3.19199167 2.41556126 5.74716687 4.68003538 8 8 C4.98731243 8.92054342 3.57270838 9.27861489 0.6875 7.875 C-1 6 -1 6 -1.3125 3.375 C-1 1 -1 1 0 0 Z " fill="#007D3F" transform="translate(1704,258)"/>
<path d="M0 0 C2.97 0.495 2.97 0.495 6 1 C6 1.99 6 2.98 6 4 C6.99 4 7.98 4 9 4 C9 4.66 9 5.32 9 6 C10.32 6.66 11.64 7.32 13 8 C12 9 12 9 9.4375 9.0625 C8.633125 9.041875 7.82875 9.02125 7 9 C6.67 8.01 6.34 7.02 6 6 C5.34 6 4.68 6 4 6 C4 5.34 4 4.68 4 4 C3.34 3.67 2.68 3.34 2 3 C2.33 2.34 2.66 1.68 3 1 C2.01 0.67 1.02 0.34 0 0 Z " fill="#01813D" transform="translate(1766,854)"/>
<path d="M0 0 C1.65 0.33 3.3 0.66 5 1 C5.12375 1.639375 5.2475 2.27875 5.375 2.9375 C5.684375 3.9584375 5.684375 3.9584375 6 5 C6.66 5.33 7.32 5.66 8 6 C7 7 7 7 4.4375 7.0625 C3.2309375 7.0315625 3.2309375 7.0315625 2 7 C2 6.34 2 5.68 2 5 C1.01 5 0.02 5 -1 5 C-0.67 3.35 -0.34 1.7 0 0 Z " fill="#0A8446" transform="translate(922,804)"/>
<path d="M0 0 C0.66 1.98 1.32 3.96 2 6 C0.02 6.99 0.02 6.99 -2 8 C-2 7.34 -2 6.68 -2 6 C-3.32 5.67 -4.64 5.34 -6 5 C-6 3.68 -6 2.36 -6 1 C-4 0 -4 0 0 0 Z " fill="#018843" transform="translate(1546,750)"/>
<path d="M0 0 C1.32 1.65 2.64 3.3 4 5 C2.35 6.98 0.7 8.96 -1 11 C-1.33 10.34 -1.66 9.68 -2 9 C-2.99 9 -3.98 9 -5 9 C-4.67 7.02 -4.34 5.04 -4 3 C-3.01 3 -2.02 3 -1 3 C-0.67 2.01 -0.34 1.02 0 0 Z " fill="#047642" transform="translate(1887,554)"/>
<path d="M0 0 C1.98 0 3.96 0 6 0 C6.33 0.66 6.66 1.32 7 2 C7.66 2.33 8.32 2.66 9 3 C7.625 5 7.625 5 6 7 C5.34 7 4.68 7 4 7 C4 6.34 4 5.68 4 5 C2.68 5 1.36 5 0 5 C0 3.35 0 1.7 0 0 Z " fill="#14834D" transform="translate(1607,457)"/>
<path d="M0 0 C6.57142857 5.14285714 6.57142857 5.14285714 8 9 C7.01 10.485 7.01 10.485 6 12 C5.34 12 4.68 12 4 12 C3.9175 11.401875 3.835 10.80375 3.75 10.1875 C2.79544128 7.4033704 1.42867729 6.56688858 -1 5 C-0.67 3.35 -0.34 1.7 0 0 Z " fill="#007837" transform="translate(1374,674)"/>
<path d="M0 0 C6.625 -0.125 6.625 -0.125 10 1 C9.67 1.99 9.34 2.98 9 4 C7.8553125 3.9690625 7.8553125 3.9690625 6.6875 3.9375 C3.89814214 3.87057159 3.89814214 3.87057159 1 5 C0.34 4.67 -0.32 4.34 -1 4 C-0.67 2.68 -0.34 1.36 0 0 Z " fill="#00803E" transform="translate(1798,625)"/>
<path d="M0 0 C0.33 0 0.66 0 1 0 C1.33 3.63 1.66 7.26 2 11 C0.35 11.33 -1.3 11.66 -3 12 C-2.67 8.7 -2.34 5.4 -2 2 C-1.34 2 -0.68 2 0 2 C0 1.34 0 0.68 0 0 Z " fill="#027E3F" transform="translate(646,356)"/>
<path d="M0 0 C5.875 1.875 5.875 1.875 7 3 C7.04063832 4.66617115 7.042721 6.33388095 7 8 C3 8 3 8 1.25 6.8125 C-0.38540232 4.44116664 -0.22858693 2.81923877 0 0 Z " fill="#017F3A" transform="translate(798,212)"/>
<path d="M0 0 C0.66 0 1.32 0 2 0 C2 0.99 2 1.98 2 3 C2.66 3 3.32 3 4 3 C4 3.66 4 4.32 4 5 C3.01 5 2.02 5 1 5 C1.33 6.98 1.66 8.96 2 11 C0.68 11 -0.64 11 -2 11 C-2.25 3.375 -2.25 3.375 0 0 Z " fill="#DCECDA" transform="translate(900,68)"/>
<path d="M0 0 C1.98 0 3.96 0 6 0 C6 4 6 4 5 7 C3.68 6.67 2.36 6.34 1 6 C1 5.34 1 4.68 1 4 C0.34 4 -0.32 4 -1 4 C-0.67 2.68 -0.34 1.36 0 0 Z " fill="#038140" transform="translate(987,457)"/>
<path d="M0 0 C0 0.99 0 1.98 0 3 C-1.32 3 -2.64 3 -4 3 C-4 3.66 -4 4.32 -4 5 C-2.68 5 -1.36 5 0 5 C0 5.99 0 6.98 0 8 C-1.99954746 8.04254356 -4.00041636 8.04080783 -6 8 C-7 7 -7 7 -7.0625 3.9375 C-7.041875 2.968125 -7.02125 1.99875 -7 1 C-4.53721199 -0.231394 -2.7204945 -0.07159196 0 0 Z " fill="#E0F1E4" transform="translate(927,221)"/>
<path d="M0 0 C0.94875 0.04125 1.8975 0.0825 2.875 0.125 C2.545 2.765 2.215 5.405 1.875 8.125 C1.215 7.465 0.555 6.805 -0.125 6.125 C0.25 4 0.25 4 0.875 2.125 C-0.445 3.445 -1.765 4.765 -3.125 6.125 C-2.465 6.125 -1.805 6.125 -1.125 6.125 C-1.125 6.785 -1.125 7.445 -1.125 8.125 C-2.445 7.795 -3.765 7.465 -5.125 7.125 C-5.25 4.75 -5.25 4.75 -5.125 2.125 C-3.125 0.125 -3.125 0.125 0 0 Z " fill="#EAF6EC" transform="translate(973.125,70.875)"/>
<path d="M0 0 C1.65 0.33 3.3 0.66 5 1 C4.42655063 3.86724686 4.1385485 4.8614515 2 7 C1.35232207 9.57061311 1.35232207 9.57061311 1 12 C0.01 12 -0.98 12 -2 12 C-2.41176754 8.39703406 -2.1535853 7.21597933 0 4.1875 C0.66 3.465625 1.32 2.74375 2 2 C1.34 2 0.68 2 0 2 C0 1.34 0 0.68 0 0 Z " fill="#B2DBC9" transform="translate(1027,67)"/>
<path d="M0 0 C1.98 0.495 1.98 0.495 4 1 C4 3.64 4 6.28 4 9 C3.01 9.33 2.02 9.66 1 10 C0.34 9.67 -0.32 9.34 -1 9 C-1 8.34 -1 7.68 -1 7 C-0.34 6.67 0.32 6.34 1 6 C0.34 5.67 -0.32 5.34 -1 5 C-0.67 3.35 -0.34 1.7 0 0 Z " fill="#0D894B" transform="translate(980,787)"/>
<path d="M0 0 C0 1.98 0 3.96 0 6 C-1.32 6 -2.64 6 -4 6 C-4 5.34 -4 4.68 -4 4 C-5.65 4.33 -7.3 4.66 -9 5 C-9 4.01 -9 3.02 -9 2 C-5.5647952 -0.29013653 -4.014669 -0.17842973 0 0 Z " fill="#018440" transform="translate(1368,756)"/>
<path d="M0 0 C2.97 0.495 2.97 0.495 6 1 C6.33 2.65 6.66 4.3 7 6 C6.01 6.33 5.02 6.66 4 7 C1.3125 5.5625 1.3125 5.5625 -1 4 C-0.67 2.68 -0.34 1.36 0 0 Z " fill="#068C48" transform="translate(1190,593)"/>
<path d="M0 0 C2.875 -0.1875 2.875 -0.1875 6 0 C6.66 0.99 7.32 1.98 8 3 C6.3125 4.5625 6.3125 4.5625 4 6 C1.25 5.6875 1.25 5.6875 -1 5 C-0.67 3.35 -0.34 1.7 0 0 Z " fill="#018340" transform="translate(1726,503)"/>
<path d="M0 0 C1.98 0.495 1.98 0.495 4 1 C4 1.66 4 2.32 4 3 C4.66 3 5.32 3 6 3 C6.33 4.32 6.66 5.64 7 7 C6.01 7.33 5.02 7.66 4 8 C1.3125 6.0625 1.3125 6.0625 -1 4 C-0.67 2.68 -0.34 1.36 0 0 Z " fill="#01833F" transform="translate(1769,420)"/>
<path d="M0 0 C1.32 0 2.64 0 4 0 C4.33 1.98 4.66 3.96 5 6 C2 7 2 7 -0.1875 6.0625 C-0.785625 5.711875 -1.38375 5.36125 -2 5 C-1.125 1.125 -1.125 1.125 0 0 Z " fill="#018344" transform="translate(1010,848)"/>
<path d="M0 0 C2.31 0 4.62 0 7 0 C7 2.31 7 4.62 7 7 C6.34 7 5.68 7 5 7 C5 6.34 5 5.68 5 5 C3.68 5 2.36 5 1 5 C0.67 3.35 0.34 1.7 0 0 Z " fill="#028945" transform="translate(1387,753)"/>
<path d="M0 0 C2.625 0.9375 2.625 0.9375 5 2 C4.01 3.98 3.02 5.96 2 8 C0.68 7.67 -0.64 7.34 -2 7 C-2 5.02 -2 3.04 -2 1 C-1.34 0.67 -0.68 0.34 0 0 Z " fill="#038C44" transform="translate(1287,681)"/>
<path d="M0 0 C3.3 0 6.6 0 10 0 C10 1.32 10 2.64 10 4 C2.25 4.125 2.25 4.125 0 3 C0 2.01 0 1.02 0 0 Z " fill="#048241" transform="translate(1377,385)"/>
<path d="M0 0 C1.32 0 2.64 0 4 0 C4.33 0.66 4.66 1.32 5 2 C5.99 2.33 6.98 2.66 8 3 C7.67 3.99 7.34 4.98 7 6 C5.02 6 3.04 6 1 6 C0.34 4.35 -0.32 2.7 -1 1 C-0.67 0.67 -0.34 0.34 0 0 Z " fill="#008848" transform="translate(1865,840)"/>
<path d="M0 0 C0.99 0 1.98 0 3 0 C4.85776765 3.13498292 5.20140476 5.37471432 5 9 C4.01 9 3.02 9 2 9 C1.67 8.01 1.34 7.02 1 6 C-0.49985609 4.33289654 -0.49985609 4.33289654 -2 3 C-1.34 2.01 -0.68 1.02 0 0 Z " fill="#068945" transform="translate(1388,836)"/>
<path d="M0 0 C1.65 0.33 3.3 0.66 5 1 C5 2.32 5 3.64 5 5 C5.66 5.33 6.32 5.66 7 6 C6.34 6.66 5.68 7.32 5 8 C4.01 8 3.02 8 2 8 C2 7.01 2 6.02 2 5 C1.01 5 0.02 5 -1 5 C-0.67 3.35 -0.34 1.7 0 0 Z " fill="#018D47" transform="translate(1368,619)"/>
<path d="M0 0 C0.66 1.32 1.32 2.64 2 4 C0.75 5.5625 0.75 5.5625 -1 7 C-3.1875 6.6875 -3.1875 6.6875 -5 6 C-5.33 4.35 -5.66 2.7 -6 1 C-4.02 0.67 -2.04 0.34 0 0 Z " fill="#17844E" transform="translate(1728,563)"/>
<path d="M0 0 C1.2065625 0.0309375 1.2065625 0.0309375 2.4375 0.0625 C2.1075 1.0525 1.7775 2.0425 1.4375 3.0625 C0.4475 2.7325 -0.5425 2.4025 -1.5625 2.0625 C-1.5625 3.3825 -1.5625 4.7025 -1.5625 6.0625 C-0.2425 5.7325 1.0775 5.4025 2.4375 5.0625 C2.4375 6.0525 2.4375 7.0425 2.4375 8.0625 C0.0625 8.1875 0.0625 8.1875 -2.5625 8.0625 C-3.2225 7.4025 -3.8825 6.7425 -4.5625 6.0625 C-3.83457637 0.09352625 -3.83457637 0.09352625 0 0 Z " fill="#D3F2F4" transform="translate(906.5625,220.9375)"/>
<path d="M0 0 C1.98 0 3.96 0 6 0 C4.68 0.33 3.36 0.66 2 1 C2 2.32 2 3.64 2 5 C3.32 5 4.64 5 6 5 C6.66 6.65 7.32 8.3 8 10 C5.00667261 9.0022242 4.05233685 8.2477975 2 6 C2 7.32 2 8.64 2 10 C1.34 10 0.68 10 0 10 C0 6.7 0 3.4 0 0 Z " fill="#18742D" transform="translate(1044,178)"/>
<path d="M0 0 C1.98 0 3.96 0 6 0 C4.68 0.33 3.36 0.66 2 1 C2 2.32 2 3.64 2 5 C3.32 5 4.64 5 6 5 C6.66 6.65 7.32 8.3 8 10 C5.00667261 9.0022242 4.05233685 8.2477975 2 6 C2 7.32 2 8.64 2 10 C1.34 10 0.68 10 0 10 C0 6.7 0 3.4 0 0 Z " fill="#18742D" transform="translate(854,178)"/>
<path d="M0 0 C1.65 0 3.3 0 5 0 C5 2.66666667 5 5.33333333 5 8 C3.35 8 1.7 8 0 8 C0 5.33333333 0 2.66666667 0 0 Z " fill="#E2EEDC" transform="translate(960,106)"/>
<path d="M0 0 C0.66 1.32 1.32 2.64 2 4 C2.66 2.68 3.32 1.36 4 0 C4.99 0.33 5.98 0.66 7 1 C5.35 4.3 3.7 7.6 2 11 C1.34 11 0.68 11 0 11 C0 7.37 0 3.74 0 0 Z " fill="#E3F3E5" transform="translate(873,68)"/>
<path d="M0 0 C1.65 0 3.3 0 5 0 C4.67 0.99 4.34 1.98 4 3 C3.34 3 2.68 3 2 3 C2.33 4.65 2.66 6.3 3 8 C1.35 8.33 -0.3 8.66 -2 9 C-1.34 6.03 -0.68 3.06 0 0 Z " fill="#00843D" transform="translate(920,956)"/>
<path d="M0 0 C2.4375 0.75 2.4375 0.75 5 2 C5.8125 4.125 5.8125 4.125 6 6 C2.98968256 6.93423645 2.13349732 7.04449911 -1 6 C-0.67 4.02 -0.34 2.04 0 0 Z " fill="#018947" transform="translate(1695,766)"/>
<path d="M0 0 C1.32 0 2.64 0 4 0 C3.69381595 3.67420866 3.24228216 4.78135513 0.4375 7.3125 C-0.366875 7.869375 -1.17125 8.42625 -2 9 C-2.33 7.35 -2.66 5.7 -3 4 C-2.34 3.67 -1.68 3.34 -1 3 C-0.67 2.01 -0.34 1.02 0 0 Z " fill="#0A7A45" transform="translate(399,394)"/>
<path d="M0 0 C2.4375 1.1875 2.4375 1.1875 5 3 C5.8125 5.6875 5.8125 5.6875 6 8 C4.35 8 2.7 8 1 8 C1 7.01 1 6.02 1 5 C0.34 5 -0.32 5 -1 5 C-0.67 3.35 -0.34 1.7 0 0 Z " fill="#007C3C" transform="translate(1444,131)"/>
<path d="M0 0 C0.66 0 1.32 0 2 0 C2.33 1.65 2.66 3.3 3 5 C2.01 5.495 2.01 5.495 1 6 C0.67 6.99 0.34 7.98 0 9 C0.66 9 1.32 9 2 9 C2 9.66 2 10.32 2 11 C0.68 11 -0.64 11 -2 11 C-2.25 3.375 -2.25 3.375 0 0 Z " fill="#E6F3E8" transform="translate(912,68)"/>
<path d="M0 0 C1.98 0 3.96 0 6 0 C6.042721 1.66611905 6.04063832 3.33382885 6 5 C5 6 5 6 2.4375 6.0625 C1.2309375 6.0315625 1.2309375 6.0315625 0 6 C0 4.02 0 2.04 0 0 Z " fill="#036F33" transform="translate(884,26)"/>
<path d="M0 0 C0.99 0.33 1.98 0.66 3 1 C3.33 1.99 3.66 2.98 4 4 C1.33333333 5.33333333 -1.33333333 6.66666667 -4 8 C-4.33 6.68 -4.66 5.36 -5 4 C-2.6875 1.9375 -2.6875 1.9375 0 0 Z " fill="#0C8343" transform="translate(1058,853)"/>
<path d="M0 0 C1.65 0.99 3.3 1.98 5 3 C4.67 4.32 4.34 5.64 4 7 C2.35 6.67 0.7 6.34 -1 6 C-1.625 4.125 -1.625 4.125 -2 2 C-1.34 1.34 -0.68 0.68 0 0 Z " fill="#038C45" transform="translate(1288,646)"/>
<path d="M0 0 C4 0 4 0 5.484375 1.3125 C6.65625 2.875 7.828125 4.4375 9 6 C6.6875 6.6875 6.6875 6.6875 4 7 C2.3125 5.6875 2.3125 5.6875 1 4 C0.34 3.34 -0.32 2.68 -1 2 C-0.67 1.34 -0.34 0.68 0 0 Z " fill="#058345" transform="translate(1380,504)"/>
<path d="M0 0 C2.96175123 0.61277612 4.38058783 1.25372522 7 3 C6.34 4.32 5.68 5.64 5 7 C3.68 7 2.36 7 1 7 C0.31292445 4.50935112 0 2.62113708 0 0 Z " fill="#017F3B" transform="translate(1299,915)"/>
<path d="M0 0 C1.32 0 2.64 0 4 0 C4.33 1.65 4.66 3.3 5 5 C4.195625 5.12375 3.39125 5.2475 2.5625 5.375 C1.2940625 5.684375 1.2940625 5.684375 0 6 C-0.33 6.66 -0.66 7.32 -1 8 C-1.66 8 -2.32 8 -3 8 C-1.125 1.125 -1.125 1.125 0 0 Z " fill="#018645" transform="translate(1550,886)"/>
<path d="M0 0 C0.94875 0.04125 1.8975 0.0825 2.875 0.125 C2.875 1.445 2.875 2.765 2.875 4.125 C0.5625 4.8125 0.5625 4.8125 -2.125 5.125 C-3.9375 3.6875 -3.9375 3.6875 -5.125 2.125 C-3.125 0.125 -3.125 0.125 0 0 Z " fill="#0A8244" transform="translate(1169.125,618.875)"/>
<path d="M0 0 C0.71542969 0.28746094 1.43085937 0.57492187 2.16796875 0.87109375 C2.71066406 1.09925781 3.25335937 1.32742188 3.8125 1.5625 C3.8125 1.8925 3.8125 2.2225 3.8125 2.5625 C-3.61607143 4.99107143 -3.61607143 4.99107143 -7.1875 3.5625 C-7.1875 2.2425 -7.1875 0.9225 -7.1875 -0.4375 C-3.77818103 -1.57393966 -3.18414544 -1.30497764 0 0 Z " fill="#028C47" transform="translate(1259.1875,589.4375)"/>
<path d="M0 0 C0.99 0.33 1.98 0.66 3 1 C2.67 1.33 2.34 1.66 2 2 C1.95936168 3.66617115 1.957279 5.33388095 2 7 C3.65 7.33 5.3 7.66 7 8 C7 8.33 7 8.66 7 9 C4.69 9 2.38 9 0 9 C0 7.68 0 6.36 0 5 C-1.32 5.33 -2.64 5.66 -4 6 C-4 4.68 -4 3.36 -4 2 C-2.02 2.495 -2.02 2.495 0 3 C0 2.01 0 1.02 0 0 Z " fill="#1E8253" transform="translate(927,221)"/>
<path d="M0 0 C0.99 0 1.98 0 3 0 C3 3.63 3 7.26 3 11 C2.01 11 1.02 11 0 11 C0 7.37 0 3.74 0 0 Z " fill="#D0EBE0" transform="translate(898,218)"/>
<path d="M0 0 C2.31 0 4.62 0 7 0 C7 1.32 7 2.64 7 4 C5.02 4.33 3.04 4.66 1 5 C1 4.34 1 3.68 1 3 C0.34 3 -0.32 3 -1 3 C-0.67 2.01 -0.34 1.02 0 0 Z " fill="#01823D" transform="translate(871,463)"/>
<path d="M0 0 C1.67542976 0.28604898 3.34385343 0.61781233 5 1 C5 1.66 5 2.32 5 3 C5.66 3 6.32 3 7 3 C7 4.32 7 5.64 7 7 C5.35 6.67 3.7 6.34 2 6 C1.67 5.01 1.34 4.02 1 3 C0.34 2.34 -0.32 1.68 -1 1 C-0.67 0.67 -0.34 0.34 0 0 Z " fill="#018945" transform="translate(1374,432)"/>
<path d="M0 0 C1.32 0 2.64 0 4 0 C4.33 2.31 4.66 4.62 5 7 C3.02 6.34 1.04 5.68 -1 5 C-0.67 3.35 -0.34 1.7 0 0 Z " fill="#018C44" transform="translate(1356,425)"/>
<path d="M0 0 C2.4375 0.6875 2.4375 0.6875 5 2 C5.8125 4.625 5.8125 4.625 6 7 C4.68 7 3.36 7 2 7 C2 6.34 2 5.68 2 5 C1.01 5 0.02 5 -1 5 C-1.33 4.01 -1.66 3.02 -2 2 C-1.34 1.34 -0.68 0.68 0 0 Z " fill="#018544" transform="translate(1458,239)"/>
<path d="M0 0 C1.65 0.33 3.3 0.66 5 1 C4.01 1.495 4.01 1.495 3 2 C2.34 1.67 1.68 1.34 1 1 C2.0209375 1.8353125 2.0209375 1.8353125 3.0625 2.6875 C3.701875 3.450625 4.34125 4.21375 5 5 C4.75 7.75 4.75 7.75 4 10 C2.35 9.67 0.7 9.34 -1 9 C-0.34 8.67 0.32 8.34 1 8 C1.66 8.33 2.32 8.66 3 9 C3 8.01 3 7.02 3 6 C1.68 5.34 0.36 4.68 -1 4 C-0.67 2.68 -0.34 1.36 0 0 Z " fill="#17732D" transform="translate(830,178)"/>
<path d="M0 0 C2.625 0.9375 2.625 0.9375 5 2 C4.67 2.99 4.34 3.98 4 5 C1.69 5 -0.62 5 -3 5 C-2.625 3.0625 -2.625 3.0625 -2 1 C-1.34 0.67 -0.68 0.34 0 0 Z " fill="#01843F" transform="translate(1605,917)"/>
<path d="M0 0 C0.38218767 1.65614657 0.71395102 3.32457024 1 5 C0 6 0 6 -2.5625 6.0625 C-3.7690625 6.0315625 -3.7690625 6.0315625 -5 6 C-5 4.35 -5 2.7 -5 1 C-3 0 -3 0 0 0 Z " fill="#028C49" transform="translate(1741,805)"/>
<path d="M0 0 C2.64 0 5.28 0 8 0 C8.33 0.99 8.66 1.98 9 3 C5.26562152 3.87867729 1.83225427 4.08912219 -2 4 C-1.34 2.68 -0.68 1.36 0 0 Z " fill="#017E3A" transform="translate(609,686)"/>
<path d="M0 0 C2.475 0.495 2.475 0.495 5 1 C5.33 2.32 5.66 3.64 6 5 C4.02 5.99 4.02 5.99 2 7 C0 4 0 4 0 0 Z " fill="#008E47" transform="translate(1030,644)"/>
<path d="M0 0 C-0.56371414 3.26954202 -1.49962266 4.82575883 -4 7 C-5.32 6.34 -6.64 5.68 -8 5 C-5.92852697 0.85705393 -4.76663774 0 0 0 Z " fill="#018046" transform="translate(1876,562)"/>
<path d="M0 0 C1.98 0.495 1.98 0.495 4 1 C4 1.66 4 2.32 4 3 C4.99 3.33 5.98 3.66 7 4 C7 4.99 7 5.98 7 7 C3.31245243 6.50168276 1.39509338 5.89932357 -1 3 C-0.67 2.01 -0.34 1.02 0 0 Z " fill="#007F3E" transform="translate(434,457)"/>
<path d="M0 0 C1.32 0.66 2.64 1.32 4 2 C4 3.32 4 4.64 4 6 C2.68 6 1.36 6 0 6 C-0.33 6.66 -0.66 7.32 -1 8 C-2 7 -2 7 -2.1875 4.5625 C-2 2 -2 2 0 0 Z " fill="#8FCCB6" transform="translate(944,221)"/>
<path d="M0 0 C3.65316671 1.24976756 4.78065836 1.67098753 7 5 C6.67 5.99 6.34 6.98 6 8 C5.01 8 4.02 8 3 8 C3 7.01 3 6.02 3 5 C2.01 4.67 1.02 4.34 0 4 C0 2.68 0 1.36 0 0 Z " fill="#01803F" transform="translate(1486,138)"/>
<path d="M0 0 C0.66 0 1.32 0 2 0 C2 3.96 2 7.92 2 12 C1.34 11.34 0.68 10.68 0 10 C0 8.68 0 7.36 0 6 C-1.65 6 -3.3 6 -5 6 C-4.67 5.34 -4.34 4.68 -4 4 C-2.68 4 -1.36 4 0 4 C0 2.68 0 1.36 0 0 Z " fill="#F5FDF1" transform="translate(956,102)"/>
<path d="M0 0 C0.33 0.99 0.66 1.98 1 3 C4.0745356 2.2236068 4.0745356 2.2236068 6 0 C5.67 1.65 5.34 3.3 5 5 C3.68 5 2.36 5 1 5 C1 5.99 1 6.98 1 8 C0.01 8 -0.98 8 -2 8 C-1.125 1.125 -1.125 1.125 0 0 Z " fill="#DFF2E8" transform="translate(931,74)"/>
<path d="M0 0 C1.67542976 0.28604898 3.34385343 0.61781233 5 1 C5 3.31 5 5.62 5 8 C4.67 8 4.34 8 4 8 C4 6.35 4 4.7 4 3 C3.34 3 2.68 3 2 3 C2 4.32 2 5.64 2 7 C1.01 6.67 0.02 6.34 -1 6 C-1.042721 4.33388095 -1.04063832 2.66617115 -1 1 C-0.67 0.67 -0.34 0.34 0 0 Z " fill="#1D8241" transform="translate(1021,64)"/>
<path d="M0 0 C0.66 0 1.32 0 2 0 C2 0.99 2 1.98 2 3 C2.66 3 3.32 3 4 3 C4 3.99 4 4.98 4 6 C3.01 6 2.02 6 1 6 C1 7.65 1 9.3 1 11 C-1 9 -1 9 -1.23046875 7.08984375 C-1.11111111 1.11111111 -1.11111111 1.11111111 0 0 Z " fill="#01622B" transform="translate(702,29)"/>
<path d="M0 0 C1.32 0 2.64 0 4 0 C4.042721 1.66611905 4.04063832 3.33382885 4 5 C3 6 3 6 0.4375 6.0625 C-0.7690625 6.0315625 -0.7690625 6.0315625 -2 6 C-1.125 1.125 -1.125 1.125 0 0 Z " fill="#017E42" transform="translate(1318,27)"/>
<path d="M0 0 C0 1.32 0 2.64 0 4 C-2.31 4 -4.62 4 -7 4 C-7 2.68 -7 1.36 -7 0 C-3.86650268 -1.04449911 -3.01031744 -0.93423645 0 0 Z " fill="#1A8250" transform="translate(1383,336)"/>
<path d="M0 0 C1.32 0.66 2.64 1.32 4 2 C4.125 5.375 4.125 5.375 4 9 C3.34 9.66 2.68 10.32 2 11 C-0.125 10.625 -0.125 10.625 -2 10 C-1.01 9.34 -0.02 8.68 1 8 C1.41666667 5.5 1.41666667 5.5 1 3 C0.34 2.34 -0.32 1.68 -1 1 C-0.67 0.67 -0.34 0.34 0 0 Z " fill="#F7F5DF" transform="translate(985,218)"/>
<path d="M0 0 C0.66 0 1.32 0 2 0 C2.33 0.99 2.66 1.98 3 3 C3.99 2.01 4.98 1.02 6 0 C5.67 3.3 5.34 6.6 5 10 C4.01 10 3.02 10 2 10 C1.34 6.7 0.68 3.4 0 0 Z " fill="#1B742D" transform="translate(1013,178)"/>
<path d="M0 0 C1.65 0 3.3 0 5 0 C5.33 0.99 5.66 1.98 6 3 C5.01 4.485 5.01 4.485 4 6 C3.01 6 2.02 6 1 6 C1 5.01 1 4.02 1 3 C0.34 3 -0.32 3 -1 3 C-0.67 2.01 -0.34 1.02 0 0 Z " fill="#077C46" transform="translate(762,154)"/>
<path d="M0 0 C0.33 0.66 0.66 1.32 1 2 C2.65 1.34 4.3 0.68 6 0 C6 0.66 6 1.32 6 2 C5.01 2.495 5.01 2.495 4 3 C3.27840576 4.64363134 2.60648579 6.31050386 2 8 C1.34 8 0.68 8 0 8 C-0.33 7.01 -0.66 6.02 -1 5 C-1.66 4.34 -2.32 3.68 -3 3 C-2.01 2.67 -1.02 2.34 0 2 C0 1.34 0 0.68 0 0 Z " fill="#008644" transform="translate(1549,811)"/>
<path d="M0 0 C0.78375 0.04125 1.5675 0.0825 2.375 0.125 C2.125 2 2.125 2 1.375 4.125 C-0.6875 5.375 -0.6875 5.375 -2.625 6.125 C-3.285 4.805 -3.945 3.485 -4.625 2.125 C-2.625 0.125 -2.625 0.125 0 0 Z " fill="#008B47" transform="translate(1379.625,795.875)"/>
<path d="M0 0 C1.98 0 3.96 0 6 0 C6 1.32 6 2.64 6 4 C4.35 4.33 2.7 4.66 1 5 C0.67 3.35 0.34 1.7 0 0 Z " fill="#0E824C" transform="translate(1679,787)"/>
<path d="M0 0 C2.475 0.99 2.475 0.99 5 2 C5 2.99 5 3.98 5 5 C3.35 5.33 1.7 5.66 0 6 C-0.38218767 4.34385343 -0.71395102 2.67542976 -1 1 C-0.67 0.67 -0.34 0.34 0 0 Z " fill="#01823F" transform="translate(1384,745)"/>
<path d="M0 0 C5.75 -0.125 5.75 -0.125 8 1 C7.67 1.99 7.34 2.98 7 4 C5.125 4.8125 5.125 4.8125 3 5 C2.01 4.34 1.02 3.68 0 3 C0 2.01 0 1.02 0 0 Z " fill="#018C46" transform="translate(1678,591)"/>
<path d="M0 0 C2.64 0 5.28 0 8 0 C7.67 1.65 7.34 3.3 7 5 C5.68 5 4.36 5 3 5 C3 4.01 3 3.02 3 2 C2.01 1.67 1.02 1.34 0 1 C0 0.67 0 0.34 0 0 Z " fill="#01622D" transform="translate(1788,560)"/>
<path d="M0 0 C-0.33 2.97 -0.66 5.94 -1 9 C0.32 9.33 1.64 9.66 3 10 C1.35 10 -0.3 10 -2 10 C-2.433125 8.576875 -2.433125 8.576875 -2.875 7.125 C-3.76825109 3.94788422 -3.76825109 3.94788422 -6 2 C-3 0 -3 0 0 0 Z " fill="#0B7F49" transform="translate(1845,524)"/>
<path d="M0 0 C3 0 3 0 4.75 1.25 C6 3 6 3 5.6875 5.1875 C5.460625 5.785625 5.23375 6.38375 5 7 C4.01 7 3.02 7 2 7 C2 6.01 2 5.02 2 4 C1.01 3.67 0.02 3.34 -1 3 C-0.67 2.01 -0.34 1.02 0 0 Z " fill="#018544" transform="translate(1472,495)"/>
<path d="M0 0 C-0.66 1.65 -1.32 3.3 -2 5 C-4.91517292 3.92598892 -6.77810176 3.22189824 -9 1 C-5.57367167 -0.61798838 -3.61944899 -1.34053666 0 0 Z " fill="#08814C" transform="translate(1456,273)"/>
<path d="M0 0 C0.66 0 1.32 0 2 0 C2 0.66 2 1.32 2 2 C2.66 2 3.32 2 4 2 C4 1.34 4 0.68 4 0 C5.65 0 7.3 0 9 0 C6.73442515 3.39836227 5.69277466 3.64898488 2 5 C1.01 5.66 0.02 6.32 -1 7 C-0.67 4.69 -0.34 2.38 0 0 Z " fill="#017E3E" transform="translate(837,265)"/>
<path d="M0 0 C1.32 0 2.64 0 4 0 C4 1.65 4 3.3 4 5 C2.35 5.33 0.7 5.66 -1 6 C-1 2 -1 2 0 0 Z " fill="#0E8849" transform="translate(687,244)"/>
<path d="M0 0 C0 2.31 0 4.62 0 7 C-1.65 7 -3.3 7 -5 7 C-5.1875 4.625 -5.1875 4.625 -5 2 C-2 0 -2 0 0 0 Z " fill="#0F7645" transform="translate(1900,188)"/>
<path d="M0 0 C-0.33 2.31 -0.66 4.62 -1 7 C-2.32 6.67 -3.64 6.34 -5 6 C-4.625 3.5625 -4.625 3.5625 -4 1 C-2 0 -2 0 0 0 Z " fill="#018847" transform="translate(670,831)"/>
<path d="M0 0 C2.375 -0.125 2.375 -0.125 5 0 C7 2 7 2 7 5 C5.35 5 3.7 5 2 5 C1.34 3.35 0.68 1.7 0 0 Z " fill="#01853F" transform="translate(1777,803)"/>
<path d="M0 0 C0.99 0.33 1.98 0.66 3 1 C3.6875 3.0625 3.6875 3.0625 4 5 C-0.75 6.125 -0.75 6.125 -3 5 C-1.125 1.125 -1.125 1.125 0 0 Z " fill="#098245" transform="translate(859,409)"/>
<path d="M0 0 C2.475 0.99 2.475 0.99 5 2 C3.6875 4.5 3.6875 4.5 2 7 C1.01 7 0.02 7 -1 7 C-1.04254356 5.00045254 -1.04080783 2.99958364 -1 1 C-0.67 0.67 -0.34 0.34 0 0 Z " fill="#00833F" transform="translate(714,321)"/>
<path d="M0 0 C0.66 0 1.32 0 2 0 C3.38232443 1.62626404 4.71937515 3.2925002 6 5 C4.02 5.99 4.02 5.99 2 7 C1.01 6.34 0.02 5.68 -1 5 C-0.67 3.35 -0.34 1.7 0 0 Z " fill="#018242" transform="translate(764,180)"/>
<path d="M0 0 C1.98 0 3.96 0 6 0 C6 0.66 6 1.32 6 2 C5.01 2.33 4.02 2.66 3 3 C2.67 4.65 2.34 6.3 2 8 C1.01 8 0.02 8 -1 8 C-0.67 5.36 -0.34 2.72 0 0 Z " fill="#E1F1E3" transform="translate(983,71)"/>
<path d="M0 0 C1.32 0 2.64 0 4 0 C4.66 1.65 5.32 3.3 6 5 C5.01 5.495 5.01 5.495 4 6 C1.375 4.5625 1.375 4.5625 -1 3 C-0.67 2.01 -0.34 1.02 0 0 Z " fill="#028642" transform="translate(851,944)"/>
<path d="M0 0 C1.32 0 2.64 0 4 0 C3.67 2.31 3.34 4.62 3 7 C2.34 7 1.68 7 1 7 C-1 4 -1 4 -0.625 1.8125 C-0.41875 1.214375 -0.2125 0.61625 0 0 Z " fill="#028948" transform="translate(1621,750)"/>
<path d="M0 0 C1.32 0 2.64 0 4 0 C4.66 1.65 5.32 3.3 6 5 C4.02 5.33 2.04 5.66 0 6 C0 4.02 0 2.04 0 0 Z " fill="#017F3C" transform="translate(954,655)"/>
<path d="M0 0 C1.32 0 2.64 0 4 0 C4 1.65 4 3.3 4 5 C2.35 5.33 0.7 5.66 -1 6 C-1.042721 4.33388095 -1.04063832 2.66617115 -1 1 C-0.67 0.67 -0.34 0.34 0 0 Z " fill="#0B8746" transform="translate(1200,623)"/>
<path d="M0 0 C0.33 0.66 0.66 1.32 1 2 C2.32 2 3.64 2 5 2 C4.67 3.32 4.34 4.64 4 6 C2.35 5.67 0.7 5.34 -1 5 C-1 1 -1 1 0 0 Z " fill="#018743" transform="translate(1464,615)"/>
<path d="M0 0 C1.65 0.33 3.3 0.66 5 1 C4.01 2.32 3.02 3.64 2 5 C1.01 4.34 0.02 3.68 -1 3 C-0.67 2.01 -0.34 1.02 0 0 Z M1 5 C1.66 5.66 2.32 6.32 3 7 C2.67 7.66 2.34 8.32 2 9 C1.01 8.67 0.02 8.34 -1 8 C-0.34 7.01 0.32 6.02 1 5 Z " fill="#00823F" transform="translate(1268,562)"/>
<path d="M0 0 C1.32 0 2.64 0 4 0 C4 0.66 4 1.32 4 2 C5.65 2.33 7.3 2.66 9 3 C8.67 3.66 8.34 4.32 8 5 C5.69 4.67 3.38 4.34 1 4 C0.67 2.68 0.34 1.36 0 0 Z " fill="#00682F" transform="translate(1727,511)"/>
<path d="M0 0 C0.66 0.33 1.32 0.66 2 1 C1.67 1.33 1.34 1.66 1 2 C1.66 2.33 2.32 2.66 3 3 C3 4.32 3 5.64 3 7 C1.68 6.67 0.36 6.34 -1 6 C-1 5.34 -1 4.68 -1 4 C-1.639375 3.87625 -2.27875 3.7525 -2.9375 3.625 C-3.618125 3.41875 -4.29875 3.2125 -5 3 C-5.33 2.34 -5.66 1.68 -6 1 C-3.525 1.99 -3.525 1.99 -1 3 C-0.67 2.01 -0.34 1.02 0 0 Z " fill="#027A3F" transform="translate(1455,275)"/>
<path d="M0 0 C1.65 0 3.3 0 5 0 C5.66 1.32 6.32 2.64 7 4 C6.01 4.66 5.02 5.32 4 6 C4 5.34 4 4.68 4 4 C2.68 4 1.36 4 0 4 C0 2.68 0 1.36 0 0 Z " fill="#A69624" transform="translate(1046,179)"/>
<path d="M0 0 C1.32 0 2.64 0 4 0 C4.33 1.98 4.66 3.96 5 6 C3.35 6 1.7 6 0 6 C0 4.02 0 2.04 0 0 Z " fill="#015A28" transform="translate(1775,97)"/>
<path d="M0 0 C0.99 0.33 1.98 0.66 3 1 C3.6875 3.0625 3.6875 3.0625 4 5 C2.02 5.66 0.04 6.32 -2 7 C-2.125 4.625 -2.125 4.625 -2 2 C-1.34 1.34 -0.68 0.68 0 0 Z " fill="#7ABBA7" transform="translate(1018,71)"/>
<path d="M0 0 C-0.33 1.32 -0.66 2.64 -1 4 C-3.31 3.67 -5.62 3.34 -8 3 C-8 2.34 -8 1.68 -8 1 C-5.07175348 0.02391783 -3.04386724 -0.08226668 0 0 Z " fill="#018540" transform="translate(1425,857)"/>
<path d="M0 0 C1.67542976 0.28604898 3.34385343 0.61781233 5 1 C5 2.32 5 3.64 5 5 C3.35 5 1.7 5 0 5 C-0.5625 3.0625 -0.5625 3.0625 -1 1 C-0.67 0.67 -0.34 0.34 0 0 Z " fill="#15874C" transform="translate(836,781)"/>
<path d="M0 0 C0.66 0 1.32 0 2 0 C2 2.31 2 4.62 2 7 C0.02 7.99 0.02 7.99 -2 9 C-1.125 2.25 -1.125 2.25 0 0 Z " fill="#018040" transform="translate(1818,660)"/>
<path d="M0 0 C1.9375 0.75 1.9375 0.75 4 2 C4.75 4.125 4.75 4.125 5 6 C2.03 5.505 2.03 5.505 -1 5 C-0.67 3.35 -0.34 1.7 0 0 Z " fill="#018241" transform="translate(1467,649)"/>
<path d="M0 0 C2.31 0 4.62 0 7 0 C6.67 1.32 6.34 2.64 6 4 C4.35 4 2.7 4 1 4 C0.67 2.68 0.34 1.36 0 0 Z " fill="#018242" transform="translate(1649,611)"/>
<path d="M0 0 C3.465 1.98 3.465 1.98 7 4 C5.68 4.33 4.36 4.66 3 5 C3 5.66 3 6.32 3 7 C3.66 7.33 4.32 7.66 5 8 C3.68 7.67 2.36 7.34 1 7 C0.67 4.69 0.34 2.38 0 0 Z " fill="#028640" transform="translate(1218,575)"/>
<path d="M0 0 C1.67542976 0.28604898 3.34385343 0.61781233 5 1 C4.67 2.32 4.34 3.64 4 5 C2.35 5 0.7 5 -1 5 C-1 1 -1 1 0 0 Z " fill="#018B42" transform="translate(1313,497)"/>
<path d="M0 0 C0.33 1.32 0.66 2.64 1 4 C1.66 2.68 2.32 1.36 3 0 C3.99 0.33 4.98 0.66 6 1 C6 2.65 6 4.3 6 6 C4.33388095 6.042721 2.66617115 6.04063832 1 6 C0 5 0 5 -0.0625 2.4375 C-0.041875 1.633125 -0.02125 0.82875 0 0 Z " fill="#88C5AF" transform="translate(928,223)"/>
<path d="M0 0 C0.99 0.66 1.98 1.32 3 2 C2.67 3.65 2.34 5.3 2 7 C0.68 7 -0.64 7 -2 7 C-1.125 1.125 -1.125 1.125 0 0 Z " fill="#018547" transform="translate(1490,177)"/>
<path d="M0 0 C1.2065625 0.0309375 1.2065625 0.0309375 2.4375 0.0625 C1.7775 2.0425 1.1175 4.0225 0.4375 6.0625 C-0.5525 5.7325 -1.5425 5.4025 -2.5625 5.0625 C-3.3125 3.0625 -3.3125 3.0625 -3.5625 1.0625 C-2.5625 0.0625 -2.5625 0.0625 0 0 Z " fill="#077C45" transform="translate(747.5625,153.9375)"/>
<path d="M0 0 C0.66 0 1.32 0 2 0 C2 3.96 2 7.92 2 12 C1.01 12 0.02 12 -1 12 C-1.14285714 3.42857143 -1.14285714 3.42857143 0 0 Z " fill="#DDF2E5" transform="translate(941,67)"/>
<path d="M0 0 C2.16874252 0.50603992 3.99967627 0.99983813 6 2 C6 3.32 6 4.64 6 6 C4.68 6 3.36 6 2 6 C1.34 4.02 0.68 2.04 0 0 Z " fill="#018946" transform="translate(1764,863)"/>
<path d="M0 0 C0.66 0.33 1.32 0.66 2 1 C2.40729228 3.32156597 2.74438677 5.6568787 3 8 C2.01 8 1.02 8 0 8 C-1.125 5.6875 -1.125 5.6875 -2 3 C-1.34 2.01 -0.68 1.02 0 0 Z " fill="#088243" transform="translate(1255,808)"/>
<path d="M0 0 C0.33 0.99 0.66 1.98 1 3 C1.66 3 2.32 3 3 3 C3.33 3.99 3.66 4.98 4 6 C2.02 6.33 0.04 6.66 -2 7 C-1.125 1.125 -1.125 1.125 0 0 Z " fill="#12864C" transform="translate(631,735)"/>
<path d="M0 0 C2.64 0.33 5.28 0.66 8 1 C8 1.99 8 2.98 8 4 C6.35 4.33 4.7 4.66 3 5 C3 4.01 3 3.02 3 2 C2.01 2.33 1.02 2.66 0 3 C0 2.01 0 1.02 0 0 Z " fill="#068645" transform="translate(1325,674)"/>
<path d="M0 0 C1.67542976 0.28604898 3.34385343 0.61781233 5 1 C4.67 2.65 4.34 4.3 4 6 C2.68 5.67 1.36 5.34 0 5 C-0.5625 3.0625 -0.5625 3.0625 -1 1 C-0.67 0.67 -0.34 0.34 0 0 Z " fill="#00652B" transform="translate(1779,634)"/>
<path d="M0 0 C1.98 0 3.96 0 6 0 C6 1.32 6 2.64 6 4 C4.35 4 2.7 4 1 4 C0.67 2.68 0.34 1.36 0 0 Z " fill="#0B8647" transform="translate(834,501)"/>
<path d="M0 0 C1.32 0 2.64 0 4 0 C4.6875 1.8125 4.6875 1.8125 5 4 C3.5625 5.75 3.5625 5.75 2 7 C1.01 5.02 0.02 3.04 -1 1 C-0.67 0.67 -0.34 0.34 0 0 Z " fill="#087F43" transform="translate(988,466)"/>
<path d="M0 0 C2.475 0.495 2.475 0.495 5 1 C5.33 2.65 5.66 4.3 6 6 C4.35 5.67 2.7 5.34 1 5 C0.67 3.35 0.34 1.7 0 0 Z " fill="#018742" transform="translate(1275,449)"/>
<path d="M0 0 C1.2065625 0.0309375 1.2065625 0.0309375 2.4375 0.0625 C2.7675 1.3825 3.0975 2.7025 3.4375 4.0625 C2.1175 4.3925 0.7975 4.7225 -0.5625 5.0625 C-1.5525 3.7425 -2.5425 2.4225 -3.5625 1.0625 C-2.5625 0.0625 -2.5625 0.0625 0 0 Z " fill="#01632A" transform="translate(1506.5625,382.9375)"/>
<path d="M0 0 C-2.38573379 1.89213369 -4.07175348 3.02391783 -7 4 C-7.33 3.34 -7.66 2.68 -8 2 C-8.99 1.34 -9.98 0.68 -11 0 C-7.07632508 -2.82504594 -4.32061114 -1.49559616 0 0 Z " fill="#018643" transform="translate(1370,351)"/>
<path d="M0 0 C0.66 0 1.32 0 2 0 C2.33 1.65 2.66 3.3 3 5 C1.35 5.33 -0.3 5.66 -2 6 C-2 2 -2 2 0 0 Z " fill="#0A8343" transform="translate(1180,343)"/>
<path d="M0 0 C0.99 0.33 1.98 0.66 3 1 C3.1875 3.375 3.1875 3.375 3 6 C2.01 6.66 1.02 7.32 0 8 C-1 7 -1 7 -1.125 4 C-1 1 -1 1 0 0 Z " fill="#117F4A" transform="translate(1695,253)"/>
<path d="M0 0 C0.66 0.33 1.32 0.66 2 1 C2.625 4.0625 2.625 4.0625 3 7 C1.35 6.67 -0.3 6.34 -2 6 C-2 4.35 -2 2.7 -2 1 C-1.34 0.67 -0.68 0.34 0 0 Z " fill="#017F3D" transform="translate(860,211)"/>
<path d="M0 0 C0.66 0.33 1.32 0.66 2 1 C1.67 2.65 1.34 4.3 1 6 C-0.65 6 -2.3 6 -4 6 C-3.67 4.68 -3.34 3.36 -3 2 C-2.01 2 -1.02 2 0 2 C0 1.34 0 0.68 0 0 Z " fill="#8DBA95" transform="translate(996,71)"/>
<path d="M0 0 C0.66 0 1.32 0 2 0 C2 1.98 2 3.96 2 6 C0.35 6 -1.3 6 -3 6 C-3 4.68 -3 3.36 -3 2 C-2.01 2 -1.02 2 0 2 C0 1.34 0 0.68 0 0 Z " fill="#027E40" transform="translate(821,968)"/>
<path d="M0 0 C1.98 0 3.96 0 6 0 C6 1.32 6 2.64 6 4 C4.02 4 2.04 4 0 4 C0 2.68 0 1.36 0 0 Z " fill="#028A4B" transform="translate(1749,848)"/>
<path d="M0 0 C1.32 0 2.64 0 4 0 C4 1.98 4 3.96 4 6 C2.68 6 1.36 6 0 6 C0 4.02 0 2.04 0 0 Z " fill="#157C40" transform="translate(1040,816)"/>
<path d="M0 0 C1.98 0.495 1.98 0.495 4 1 C3.67 2.65 3.34 4.3 3 6 C2.01 6 1.02 6 0 6 C-1 3 -1 3 0 0 Z " fill="#017C3D" transform="translate(1310,788)"/>
<path d="M0 0 C2.0625 0.1875 2.0625 0.1875 4 1 C4.33 1.99 4.66 2.98 5 4 C4.01 4.66 3.02 5.32 2 6 C0.68 4.68 -0.64 3.36 -2 2 C-1.34 1.34 -0.68 0.68 0 0 Z " fill="#018945" transform="translate(1505,778)"/>
<path d="M0 0 C1.32 0 2.64 0 4 0 C3.649375 0.61875 3.29875 1.2375 2.9375 1.875 C2.628125 2.57625 2.31875 3.2775 2 4 C2.33 4.66 2.66 5.32 3 6 C2.34 6 1.68 6 1 6 C1.33 6.99 1.66 7.98 2 9 C1.01 8.67 0.02 8.34 -1 8 C-0.67 5.36 -0.34 2.72 0 0 Z " fill="#017F3F" transform="translate(1674,704)"/>
<path d="M0 0 C0.66 0 1.32 0 2 0 C2 0.66 2 1.32 2 2 C3.65 2.33 5.3 2.66 7 3 C7 3.33 7 3.66 7 4 C5.35 4 3.7 4 2 4 C2.33 4.99 2.66 5.98 3 7 C1.68 6.67 0.36 6.34 -1 6 C-0.67 4.02 -0.34 2.04 0 0 Z " fill="#006A2C" transform="translate(651,692)"/>
<path d="M0 0 C2.0625 0.4375 2.0625 0.4375 4 1 C3 3 2 5 1 7 C0.34 7 -0.32 7 -1 7 C-1.04254356 5.00045254 -1.04080783 2.99958364 -1 1 C-0.67 0.67 -0.34 0.34 0 0 Z " fill="#018642" transform="translate(1432,634)"/>
<path d="M0 0 C2.97 0.33 5.94 0.66 9 1 C9 1.66 9 2.32 9 3 C6.69 3.66 4.38 4.32 2 5 C1.34 3.35 0.68 1.7 0 0 Z " fill="#028441" transform="translate(1237,615)"/>
<path d="M0 0 C1.98 0.495 1.98 0.495 4 1 C4 2.65 4 4.3 4 6 C2.35 5.67 0.7 5.34 -1 5 C-0.67 3.35 -0.34 1.7 0 0 Z " fill="#038747" transform="translate(344,604)"/>
<path d="M0 0 C0.12375 0.556875 0.2475 1.11375 0.375 1.6875 C1.05976855 4.22114364 1.99133763 6.57921032 3 9 C2.01 9.99 1.02 10.98 0 12 C-1.88059033 10.11940967 -1.12361218 7.50109962 -1.1328125 5.0078125 C-1 3 -1 3 0 0 Z " fill="#017F3D" transform="translate(1044,551)"/>
<path d="M0 0 C2.475 0.99 2.475 0.99 5 2 C5 2.99 5 3.98 5 5 C2.03 4.505 2.03 4.505 -1 4 C-0.67 2.68 -0.34 1.36 0 0 Z " fill="#01662B" transform="translate(879,546)"/>
<path d="M0 0 C1.98 0 3.96 0 6 0 C5.67 1.32 5.34 2.64 5 4 C2.03 3.505 2.03 3.505 -1 3 C-0.67 2.01 -0.34 1.02 0 0 Z " fill="#018442" transform="translate(1770,530)"/>
<path d="M0 0 C1.32 0 2.64 0 4 0 C4 1.98 4 3.96 4 6 C2.68 6 1.36 6 0 6 C0 4.02 0 2.04 0 0 Z " fill="#167844" transform="translate(368,365)"/>
<path d="M0 0 C0.66 0 1.32 0 2 0 C2.98120464 3.05263664 2.98120464 4.94736336 2 8 C1.01 7.67 0.02 7.34 -1 7 C-1.04254356 5.00045254 -1.04080783 2.99958364 -1 1 C-0.67 0.67 -0.34 0.34 0 0 Z " fill="#008741" transform="translate(1351,322)"/>
<path d="M0 0 C2.4375 0.8125 2.4375 0.8125 5 2 C5.33 2.99 5.66 3.98 6 5 C4.34385343 5.38218767 2.67542976 5.71395102 1 6 C0 5 0 5 -0.0625 2.4375 C-0.041875 1.633125 -0.02125 0.82875 0 0 Z " fill="#028240" transform="translate(1389,267)"/>
<path d="M0 0 C0.99 0.33 1.98 0.66 3 1 C3 2.65 3 4.3 3 6 C1.68 6 0.36 6 -1 6 C-1.042721 4.33388095 -1.04063832 2.66617115 -1 1 C-0.67 0.67 -0.34 0.34 0 0 Z " fill="#2F7F54" transform="translate(993,220)"/>
<path d="M0 0 C0.99 0.33 1.98 0.66 3 1 C3 2.65 3 4.3 3 6 C1.68 6 0.36 6 -1 6 C-1.042721 4.33388095 -1.04063832 2.66617115 -1 1 C-0.67 0.67 -0.34 0.34 0 0 Z " fill="#1E8D65" transform="translate(984,220)"/>
<path d="M0 0 C0.99 0 1.98 0 3 0 C3 0.99 3 1.98 3 3 C3.99 3 4.98 3 6 3 C5.67 3.99 5.34 4.98 5 6 C3.125 5.75 3.125 5.75 1 5 C-0.25 2.9375 -0.25 2.9375 -1 1 C-0.67 0.67 -0.34 0.34 0 0 Z " fill="#01662D" transform="translate(798,218)"/>
<path d="M0 0 C0.598125 0.20625 1.19625 0.4125 1.8125 0.625 C1.1525 1.016875 0.4925 1.40875 -0.1875 1.8125 C-2.47916667 3.47916667 -2.47916667 3.47916667 -2.4375 6.3125 C-2.355 7.075625 -2.2725 7.83875 -2.1875 8.625 C-2.8475 8.625 -3.5075 8.625 -4.1875 8.625 C-4.5175 6.315 -4.8475 4.005 -5.1875 1.625 C-2.1875 -0.375 -2.1875 -0.375 0 0 Z " fill="#477C2A" transform="translate(880.1875,178.375)"/>
<path d="M0 0 C1.98 0 3.96 0 6 0 C5.2884375 0.5878125 5.2884375 0.5878125 4.5625 1.1875 C2.64820367 3.40808374 2.38733012 5.13375709 2 8 C1.34 8 0.68 8 0 8 C0 5.36 0 2.72 0 0 Z " fill="#F5FAEE" transform="translate(944,106)"/>
<path d="M0 0 C1.32 0 2.64 0 4 0 C4.66 1.32 5.32 2.64 6 4 C5 5 5 5 2.4375 5.0625 C1.2309375 5.0315625 1.2309375 5.0315625 0 5 C0 3.35 0 1.7 0 0 Z " fill="#007E40" transform="translate(1263,36)"/>
<path d="M0 0 C1.65 0 3.3 0 5 0 C4.67 1.65 4.34 3.3 4 5 C2.68 5 1.36 5 0 5 C0 3.35 0 1.7 0 0 Z " fill="#06672C" transform="translate(884,17)"/>
<path d="M0 0 C2.1875 0.3125 2.1875 0.3125 4 1 C3.34 2.32 2.68 3.64 2 5 C-0.475 4.01 -0.475 4.01 -3 3 C-1.75 1.4375 -1.75 1.4375 0 0 Z " fill="#018442" transform="translate(1518,732)"/>
<path d="M0 0 C2.31 0 4.62 0 7 0 C7.33 0.99 7.66 1.98 8 3 C7 4 7 4 4.4375 4.0625 C3.2309375 4.0315625 3.2309375 4.0315625 2 4 C2 3.01 2 2.02 2 1 C1.34 0.67 0.68 0.34 0 0 Z " fill="#0F8047" transform="translate(1167,631)"/>
<path d="M0 0 C0.33 0.66 0.66 1.32 1 2 C1.66 2 2.32 2 3 2 C2.67 2.99 2.34 3.98 2 5 C-0.97 4.505 -0.97 4.505 -4 4 C-3.67 3.01 -3.34 2.02 -3 1 C-2.01 0.67 -1.02 0.34 0 0 Z " fill="#09864B" transform="translate(1186,627)"/>
<path d="M0 0 C1.98 0.99 3.96 1.98 6 3 C5.01 4.485 5.01 4.485 4 6 C2.0625 5.625 2.0625 5.625 0 5 C-0.33 4.34 -0.66 3.68 -1 3 C-0.67 2.01 -0.34 1.02 0 0 Z " fill="#01642E" transform="translate(1772,618)"/>
<path d="M0 0 C0.99 0 1.98 0 3 0 C3 1.65 3 3.3 3 5 C1.68 5.33 0.36 5.66 -1 6 C-1.625 4.125 -1.625 4.125 -2 2 C-1.34 1.34 -0.68 0.68 0 0 Z " fill="#016129" transform="translate(185,431)"/>
<path d="M0 0 C3.625 -0.1875 3.625 -0.1875 7 0 C6.67 0.66 6.34 1.32 6 2 C5.34 1.67 4.68 1.34 4 1 C4.33 1.99 4.66 2.98 5 4 C2.69 3.67 0.38 3.34 -2 3 C-1.34 2.01 -0.68 1.02 0 0 Z " fill="#01823C" transform="translate(1117,353)"/>
<path d="M0 0 C2.475 0.495 2.475 0.495 5 1 C4.625 2.9375 4.625 2.9375 4 5 C3.01 5.495 3.01 5.495 2 6 C1.34 5.67 0.68 5.34 0 5 C0 3.35 0 1.7 0 0 Z " fill="#0B8146" transform="translate(855,300)"/>
<path d="M0 0 C0.66 0 1.32 0 2 0 C3.125 4.75 3.125 4.75 2 7 C1.01 7 0.02 7 -1 7 C-1.04254356 5.00045254 -1.04080783 2.99958364 -1 1 C-0.67 0.67 -0.34 0.34 0 0 Z " fill="#1B814F" transform="translate(1817,288)"/>
<path d="M0 0 C2.475 0.495 2.475 0.495 5 1 C4.67 2.32 4.34 3.64 4 5 C2.68 5 1.36 5 0 5 C0 3.35 0 1.7 0 0 Z " fill="#13804C" transform="translate(1419,289)"/>
<path d="M0 0 C0.99 0.33 1.98 0.66 3 1 C2.67 1.66 2.34 2.32 2 3 C2.99 3 3.98 3 5 3 C5 3.66 5 4.32 5 5 C2.69 5 0.38 5 -2 5 C-1.34 3.35 -0.68 1.7 0 0 Z " fill="#ECF7F2" transform="translate(974,224)"/>
<path d="M0 0 C0.33 0.99 0.66 1.98 1 3 C2.65 3.33 4.3 3.66 6 4 C6 4.99 6 5.98 6 7 C5.34 7 4.68 7 4 7 C4 6.34 4 5.68 4 5 C2.68 5 1.36 5 0 5 C0 5.66 0 6.32 0 7 C-0.66 7 -1.32 7 -2 7 C-1.125 1.125 -1.125 1.125 0 0 Z " fill="#22742E" transform="translate(1036,181)"/>
<path d="M0 0 C1.4540625 0.0309375 1.4540625 0.0309375 2.9375 0.0625 C2.6075 1.3825 2.2775 2.7025 1.9375 4.0625 C-1.0625 4.0625 -1.0625 4.0625 -2.75 2.5625 C-3.183125 2.0675 -3.61625 1.5725 -4.0625 1.0625 C-3.0625 0.0625 -3.0625 0.0625 0 0 Z " fill="#077E42" transform="translate(1044.0625,124.9375)"/>
<path d="M0 0 C1.32 0.99 2.64 1.98 4 3 C3.01 3 2.02 3 1 3 C1 3.66 1 4.32 1 5 C2.32 5 3.64 5 5 5 C4.67 5.99 4.34 6.98 4 8 C2.68 8 1.36 8 0 8 C0 5.36 0 2.72 0 0 Z " fill="#048052" transform="translate(959,109)"/>
<path d="M0 0 C0 1.98 0 3.96 0 6 C-1.98 6.99 -1.98 6.99 -4 8 C-4.36780384 3.46375267 -4.36780384 3.46375267 -2.5625 1.1875 C-1 0 -1 0 0 0 Z " fill="#005D2B" transform="translate(941,21)"/>
<path d="M0 0 C2.475 0.99 2.475 0.99 5 2 C4.01 2.495 4.01 2.495 3 3 C2.34786708 5.02463255 2.34786708 5.02463255 2 7 C0.4375 5.75 0.4375 5.75 -1 4 C-0.6875 1.8125 -0.6875 1.8125 0 0 Z " fill="#018142" transform="translate(1001,945)"/>
<path d="M0 0 C2.64 0 5.28 0 8 0 C7.67 0.99 7.34 1.98 7 3 C5.02 3 3.04 3 1 3 C0.67 2.01 0.34 1.02 0 0 Z " fill="#018442" transform="translate(1877,843)"/>
<path d="M0 0 C2.64 0 5.28 0 8 0 C7.67 0.99 7.34 1.98 7 3 C5.02 3 3.04 3 1 3 C0.67 2.01 0.34 1.02 0 0 Z " fill="#048041" transform="translate(1860,658)"/>
<path d="M0 0 C0.99 0.66 1.98 1.32 3 2 C2.34 3.32 1.68 4.64 1 6 C0.34 6 -0.32 6 -1 6 C-1 5.34 -1 4.68 -1 4 C-1.66 4 -2.32 4 -3 4 C-2.67 3.01 -2.34 2.02 -2 1 C-1.34 0.67 -0.68 0.34 0 0 Z " fill="#00682F" transform="translate(1536,610)"/>
<path d="M0 0 C-1 2 -2 4 -3 6 C-3.66 6 -4.32 6 -5 6 C-5.33 4.35 -5.66 2.7 -6 1 C-4 0 -4 0 0 0 Z " fill="#01803E" transform="translate(1758,603)"/>
<path d="M0 0 C1.625 2 1.625 2 3 4 C0.75 4.6875 0.75 4.6875 -2 5 C-4.3125 3.5625 -4.3125 3.5625 -6 2 C-2.25 0 -2.25 0 0 0 Z " fill="#027F3A" transform="translate(1555,565)"/>
<path d="M0 0 C-0.38597015 2.79828356 -0.80136573 3.8205884 -2.9375 5.75 C-5 7 -5 7 -7 7 C-7 6.01 -7 5.02 -7 4 C-2.65714286 0 -2.65714286 0 0 0 Z " fill="#017F3E" transform="translate(636,562)"/>
<path d="M0 0 C0.99 0.33 1.98 0.66 3 1 C2.67 2.98 2.34 4.96 2 7 C1.01 6.67 0.02 6.34 -1 6 C-1.042721 4.33388095 -1.04063832 2.66617115 -1 1 C-0.67 0.67 -0.34 0.34 0 0 Z " fill="#068947" transform="translate(838,452)"/>
<path d="M0 0 C1.65 0 3.3 0 5 0 C5.33 1.32 5.66 2.64 6 4 C4.02 4 2.04 4 0 4 C0 2.68 0 1.36 0 0 Z " fill="#1C7D41" transform="translate(1271,434)"/>
<path d="M0 0 C2.475 0.99 2.475 0.99 5 2 C4.67 2.99 4.34 3.98 4 5 C2.35 5 0.7 5 -1 5 C-0.67 3.35 -0.34 1.7 0 0 Z " fill="#018343" transform="translate(1620,390)"/>
<path d="M0 0 C0.33 0.66 0.66 1.32 1 2 C1.99 2.33 2.98 2.66 4 3 C4 4.32 4 5.64 4 7 C3.34 7 2.68 7 2 7 C2 6.34 2 5.68 2 5 C1.01 5 0.02 5 -1 5 C-1.33 4.01 -1.66 3.02 -2 2 C-1.34 1.34 -0.68 0.68 0 0 Z " fill="#017E3F" transform="translate(1733,340)"/>
<path d="M0 0 C1.2065625 0.0309375 1.2065625 0.0309375 2.4375 0.0625 C2.1075 1.7125 1.7775 3.3625 1.4375 5.0625 C-0.5 4.75 -0.5 4.75 -2.5625 4.0625 C-2.8925 3.0725 -3.2225 2.0825 -3.5625 1.0625 C-2.5625 0.0625 -2.5625 0.0625 0 0 Z " fill="#01823E" transform="translate(997.5625,267.9375)"/>
<path d="M0 0 C1.98 0.495 1.98 0.495 4 1 C4 2.32 4 3.64 4 5 C2.35 4.67 0.7 4.34 -1 4 C-0.67 2.68 -0.34 1.36 0 0 Z " fill="#137441" transform="translate(531,234)"/>
<path d="M0 0 C0.33 0 0.66 0 1 0 C1 2.64 1 5.28 1 8 C0.34 7.34 -0.32 6.68 -1 6 C-1.99 6 -2.98 6 -4 6 C-4 4.68 -4 3.36 -4 2 C-3.01 2 -2.02 2 -1 2 C-0.67 1.34 -0.34 0.68 0 0 Z " fill="#438A46" transform="translate(909,221)"/>
<path d="M0 0 C1.32 0.33 2.64 0.66 4 1 C3.67 2.65 3.34 4.3 3 6 C2.01 6 1.02 6 0 6 C0 4.02 0 2.04 0 0 Z " fill="#1B7A4A" transform="translate(1582,195)"/>
<path d="M0 0 C2 3.75 2 3.75 2 6 C-0.4375 5.625 -0.4375 5.625 -3 5 C-3.33 4.34 -3.66 3.68 -4 3 C-3 1 -3 1 0 0 Z " fill="#018040" transform="translate(1116,145)"/>
<path d="M0 0 C0 2.31 0 4.62 0 7 C-0.66 7 -1.32 7 -2 7 C-2.103125 6.21625 -2.20625 5.4325 -2.3125 4.625 C-2.77595022 1.66954819 -2.77595022 1.66954819 -6 0 C-3.50907189 -1.24546405 -2.58919267 -0.7767578 0 0 Z " fill="#F4F9E9" transform="translate(960,142)"/>
<path d="M0 0 C2.475 0.99 2.475 0.99 5 2 C4.67 3.32 4.34 4.64 4 6 C2.68 5.67 1.36 5.34 0 5 C0 3.35 0 1.7 0 0 Z " fill="#005C26" transform="translate(810,27)"/>
<path d="M0 0 C1.65 0 3.3 0 5 0 C5.33 0.99 5.66 1.98 6 3 C5.01 4.485 5.01 4.485 4 6 C1.375 6.1875 1.375 6.1875 -1 6 C0.32 5.67 1.64 5.34 3 5 C2.2236068 1.9254644 2.2236068 1.9254644 0 0 Z " fill="#017C3E" transform="translate(1841,961)"/>
<path d="M0 0 C-0.33 1.32 -0.66 2.64 -1 4 C-2.65 4 -4.3 4 -6 4 C-6 3.01 -6 2.02 -6 1 C-4 0 -4 0 0 0 Z " fill="#00672B" transform="translate(1182,848)"/>
<path d="M0 0 C2.66666667 1.33333333 5.33333333 2.66666667 8 4 C8 4.66 8 5.32 8 6 C5.125 5.8125 5.125 5.8125 2 5 C0.625 2.4375 0.625 2.4375 0 0 Z " fill="#068248" transform="translate(983,840)"/>
<path d="M0 0 C1.98 0 3.96 0 6 0 C5.67 1.32 5.34 2.64 5 4 C3.35 3.67 1.7 3.34 0 3 C0 2.01 0 1.02 0 0 Z " fill="#0F7A42" transform="translate(170,796)"/>
<path d="M0 0 C1.32 0.66 2.64 1.32 4 2 C3.34 3.32 2.68 4.64 2 6 C0.68 5.34 -0.64 4.68 -2 4 C-1.34 2.68 -0.68 1.36 0 0 Z " fill="#018B43" transform="translate(1251,769)"/>
<path d="M0 0 C2 3 2 3 1.625 5.1875 C1.41875 5.785625 1.2125 6.38375 1 7 C0.01 7 -0.98 7 -2 7 C-2.125 4.625 -2.125 4.625 -2 2 C-1.34 1.34 -0.68 0.68 0 0 Z " fill="#018844" transform="translate(1496,760)"/>
<path d="M0 0 C1.32 0.66 2.64 1.32 4 2 C4 3.65 4 5.3 4 7 C3.34 7 2.68 7 2 7 C0.3125 5.1875 0.3125 5.1875 -1 3 C-0.67 2.01 -0.34 1.02 0 0 Z " fill="#018441" transform="translate(703,752)"/>
<path d="M0 0 C1.32 0 2.64 0 4 0 C4.33 1.32 4.66 2.64 5 4 C3.02 4 1.04 4 -1 4 C-0.67 2.68 -0.34 1.36 0 0 Z " fill="#048745" transform="translate(1172,692)"/>
<path d="M0 0 C1.65 0 3.3 0 5 0 C4.25 1.9375 4.25 1.9375 3 4 C0.875 4.75 0.875 4.75 -1 5 C-0.67 3.35 -0.34 1.7 0 0 Z " fill="#04823E" transform="translate(1490,670)"/>
<path d="M0 0 C2 3 2 3 2 6 C0.35 5.67 -1.3 5.34 -3 5 C-2.625 3.0625 -2.625 3.0625 -2 1 C-1.34 0.67 -0.68 0.34 0 0 Z " fill="#017D40" transform="translate(760,666)"/>
<path d="M0 0 C2 0 2 0 3.625 1.5 C4.07875 1.995 4.5325 2.49 5 3 C4.67 3.99 4.34 4.98 4 6 C2.68 6 1.36 6 0 6 C0 4.02 0 2.04 0 0 Z " fill="#02843C" transform="translate(1342,649)"/>
<path d="M0 0 C0 1.32 0 2.64 0 4 C-1.98 4 -3.96 4 -6 4 C-6 3.01 -6 2.02 -6 1 C-4 0 -4 0 0 0 Z " fill="#018945" transform="translate(1773,611)"/>
<path d="M0 0 C0.66 1.32 1.32 2.64 2 4 C-0.31 4 -2.62 4 -5 4 C-5 3.01 -5 2.02 -5 1 C-3.35 0.67 -1.7 0.34 0 0 Z " fill="#00672E" transform="translate(1501,509)"/>
<path d="M0 0 C0 1.32 0 2.64 0 4 C-5.75 3.25 -5.75 3.25 -8 1 C-5.07175348 0.02391783 -3.04386724 -0.08226668 0 0 Z " fill="#018440" transform="translate(1402,345)"/>
<path d="M0 0 C1.67542976 0.28604898 3.34385343 0.61781233 5 1 C4.34 2.32 3.68 3.64 3 5 C2.01 4.67 1.02 4.34 0 4 C-0.33 3.01 -0.66 2.02 -1 1 C-0.67 0.67 -0.34 0.34 0 0 Z " fill="#0F7E44" transform="translate(1805,289)"/>
<path d="M0 0 C0.33 1.98 0.66 3.96 1 6 C-0.32 6 -1.64 6 -3 6 C-3.33 4.35 -3.66 2.7 -4 1 C-1 0 -1 0 0 0 Z " fill="#018440" transform="translate(791,289)"/>
<path d="M0 0 C0.99 0 1.98 0 3 0 C2.8125 1.875 2.8125 1.875 2 4 C-0.5625 5.25 -0.5625 5.25 -3 6 C-2.42655063 3.13275314 -2.1385485 2.1385485 0 0 Z " fill="#057A44" transform="translate(280,171)"/>
<path d="M0 0 C0.33 0.99 0.66 1.98 1 3 C1.66 3 2.32 3 3 3 C3.33 3.99 3.66 4.98 4 6 C1.50907189 7.24546405 0.58919267 6.7767578 -2 6 C-1.49396008 3.83125748 -1.00016187 2.00032373 0 0 Z " fill="#01672E" transform="translate(1491,134)"/>
<path d="M0 0 C0.99 0 1.98 0 3 0 C2.67 2.64 2.34 5.28 2 8 C1.01 8 0.02 8 -1 8 C-0.67 5.36 -0.34 2.72 0 0 Z " fill="#D9F0E6" transform="translate(1004,71)"/>
<path d="M0 0 C1.32 0 2.64 0 4 0 C4.33 1.32 4.66 2.64 5 4 C3.68 4.33 2.36 4.66 1 5 C0.67 3.35 0.34 1.7 0 0 Z " fill="#248446" transform="translate(739,14)"/>
<path d="M0 0 C3.375 -0.125 3.375 -0.125 7 0 C7.66 0.66 8.32 1.32 9 2 C6.36 2 3.72 2 1 2 C1 2.66 1 3.32 1 4 C0.34 3.67 -0.32 3.34 -1 3 C-0.67 2.01 -0.34 1.02 0 0 Z " fill="#017C3D" transform="translate(1666,949)"/>
<path d="M0 0 C0.99 0.33 1.98 0.66 3 1 C2.25 2.9375 2.25 2.9375 1 5 C-1.125 5.75 -1.125 5.75 -3 6 C-1.125 1.125 -1.125 1.125 0 0 Z " fill="#00823D" transform="translate(1658,857)"/>
<path d="M0 0 C2.0625 0.4375 2.0625 0.4375 4 1 C3.67 2.32 3.34 3.64 3 5 C2.01 5 1.02 5 0 5 C-0.5625 3.0625 -0.5625 3.0625 -1 1 C-0.67 0.67 -0.34 0.34 0 0 Z " fill="#058647" transform="translate(754,801)"/>
<path d="M0 0 C-0.33 1.65 -0.66 3.3 -1 5 C-2.9375 4.6875 -2.9375 4.6875 -5 4 C-5.33 3.01 -5.66 2.02 -6 1 C-4 0 -4 0 0 0 Z " fill="#0F8243" transform="translate(1179,790)"/>
<path d="M0 0 C0.99 0 1.98 0 3 0 C3 0.66 3 1.32 3 2 C3.66 2.33 4.32 2.66 5 3 C4.01 4.485 4.01 4.485 3 6 C2.01 6 1.02 6 0 6 C0 4.02 0 2.04 0 0 Z " fill="#028446" transform="translate(1491,776)"/>
<path d="M0 0 C1.65 0.33 3.3 0.66 5 1 C4.67 1.99 4.34 2.98 4 4 C2.35 3.67 0.7 3.34 -1 3 C-0.67 2.01 -0.34 1.02 0 0 Z " fill="#018B47" transform="translate(1461,631)"/>
<path d="M0 0 C1.98 0 3.96 0 6 0 C5.34 1.32 4.68 2.64 4 4 C2.68 3.67 1.36 3.34 0 3 C0 2.01 0 1.02 0 0 Z " fill="#015D2A" transform="translate(114,455)"/>
<path d="M0 0 C1.32 0.66 2.64 1.32 4 2 C3.01 3.485 3.01 3.485 2 5 C0.68 4.67 -0.64 4.34 -2 4 C-1.34 2.68 -0.68 1.36 0 0 Z " fill="#0F8247" transform="translate(1354,451)"/>
<path d="M0 0 C1.65 0.33 3.3 0.66 5 1 C4.67 1.99 4.34 2.98 4 4 C1.03 3.505 1.03 3.505 -2 3 C-1.34 2.01 -0.68 1.02 0 0 Z " fill="#01692C" transform="translate(1115,443)"/>
<path d="M0 0 C1.98 0 3.96 0 6 0 C5.67 0.99 5.34 1.98 5 3 C3.35 3.33 1.7 3.66 0 4 C0 2.68 0 1.36 0 0 Z " fill="#00833E" transform="translate(1806,406)"/>
<path d="M0 0 C0.66 1.32 1.32 2.64 2 4 C0.35 4.33 -1.3 4.66 -3 5 C-3 3.68 -3 2.36 -3 1 C-2.01 0.67 -1.02 0.34 0 0 Z " fill="#027D41" transform="translate(223,381)"/>
<path d="M0 0 C1.65 0.33 3.3 0.66 5 1 C5 1.99 5 2.98 5 4 C2.03 3.505 2.03 3.505 -1 3 C-0.67 2.01 -0.34 1.02 0 0 Z " fill="#00632C" transform="translate(1799,330)"/>
<path d="M0 0 C1.32 0.33 2.64 0.66 4 1 C4 1.66 4 2.32 4 3 C3.34 3 2.68 3 2 3 C1.67 4.65 1.34 6.3 1 8 C-0.32 7.67 -1.64 7.34 -3 7 C-2.2575 6.38125 -2.2575 6.38125 -1.5 5.75 C0.43386092 3.87797662 0.43386092 3.87797662 0 0 Z " fill="#00652C" transform="translate(414,323)"/>
<path d="M0 0 C1.65 0 3.3 0 5 0 C4.67 1.65 4.34 3.3 4 5 C3.01 4.67 2.02 4.34 1 4 C0.3125 1.9375 0.3125 1.9375 0 0 Z " fill="#015D2A" transform="translate(1728,314)"/>
<path d="M0 0 C-0.66 1.32 -1.32 2.64 -2 4 C-2.66 4 -3.32 4 -4 4 C-4 3.34 -4 2.68 -4 2 C-4.66 2 -5.32 2 -6 2 C-6 1.34 -6 0.68 -6 0 C-3.50907189 -1.24546405 -2.58919267 -0.7767578 0 0 Z " fill="#028047" transform="translate(853,273)"/>
<path d="M0 0 C1.32 0.33 2.64 0.66 4 1 C3.34 1 2.68 1 2 1 C1.67 2.65 1.34 4.3 1 6 C0.67 5.34 0.34 4.68 0 4 C-2.01669827 2.86649466 -2.01669827 2.86649466 -4 2 C-3.34 1.67 -2.68 1.34 -2 1 C-1.34 1.33 -0.68 1.66 0 2 C0 1.34 0 0.68 0 0 Z " fill="#017C3D" transform="translate(1112,270)"/>
<path d="M0 0 C0.33 0.99 0.66 1.98 1 3 C0.01 4.485 0.01 4.485 -1 6 C-1.66 6 -2.32 6 -3 6 C-3 5.01 -3 4.02 -3 3 C-3.66 2.67 -4.32 2.34 -5 2 C-2 0 -2 0 0 0 Z " fill="#0B8047" transform="translate(1148,266)"/>
<path d="M0 0 C0 1.65 0 3.3 0 5 C-1.32 5 -2.64 5 -4 5 C-4.33 3.68 -4.66 2.36 -5 1 C-2 0 -2 0 0 0 Z " fill="#00652D" transform="translate(1570,238)"/>
<path d="M0 0 C0.33 0 0.66 0 1 0 C1 3.3 1 6.6 1 10 C0.34 10 -0.32 10 -1 10 C-2.0625 8.1875 -2.0625 8.1875 -3 6 C-2.67 5.01 -2.34 4.02 -2 3 C-1.67 3.66 -1.34 4.32 -1 5 C-0.67 3.35 -0.34 1.7 0 0 Z " fill="#0D702D" transform="translate(996,178)"/>
<path d="M0 0 C1.65 0 3.3 0 5 0 C5 1.32 5 2.64 5 4 C3.35 4 1.7 4 0 4 C0 2.68 0 1.36 0 0 Z " fill="#A49325" transform="translate(856,179)"/>
<path d="M0 0 C0.5625 1.9375 0.5625 1.9375 1 4 C0 5 0 5 -3.0625 5.0625 C-4.5165625 5.0315625 -4.5165625 5.0315625 -6 5 C-6 4.01 -6 3.02 -6 2 C-3.525 2.495 -3.525 2.495 -1 3 C-0.67 2.01 -0.34 1.02 0 0 Z " fill="#E3F1E3" transform="translate(936,144)"/>
<path d="M0 0 C0.99 0 1.98 0 3 0 C3 1.98 3 3.96 3 6 C2.01 6.33 1.02 6.66 0 7 C0 4.69 0 2.38 0 0 Z " fill="#C7EBE3" transform="translate(938,141)"/>
<path d="M0 0 C0.99 0 1.98 0 3 0 C3.33 1.98 3.66 3.96 4 6 C2.68 5.67 1.36 5.34 0 5 C0 3.35 0 1.7 0 0 Z " fill="#00612A" transform="translate(739,140)"/>
<path d="M0 0 C0 1.65 0 3.3 0 5 C-1.32 5.33 -2.64 5.66 -4 6 C-4 4.35 -4 2.7 -4 1 C-2 0 -2 0 0 0 Z " fill="#018142" transform="translate(1249,116)"/>
<path d="M0 0 C-0.33 0.99 -0.66 1.98 -1 3 C-1.99 3 -2.98 3 -4 3 C-4.66 4.32 -5.32 5.64 -6 7 C-6.33 5.02 -6.66 3.04 -7 1 C-4.53721199 -0.231394 -2.7204945 -0.07159196 0 0 Z " fill="#E7EED5" transform="translate(933,103)"/>
<path d="M0 0 C1.32 0.66 2.64 1.32 4 2 C4 2.99 4 3.98 4 5 C2.35 5 0.7 5 -1 5 C-0.67 3.35 -0.34 1.7 0 0 Z " fill="#017E40" transform="translate(1505,10)"/>
<path d="M0 0 C0.99 0 1.98 0 3 0 C3.33 1.65 3.66 3.3 4 5 C3.01 5.33 2.02 5.66 1 6 C0.67 4.02 0.34 2.04 0 0 Z " fill="#017F43" transform="translate(1772,964)"/>
<path d="M0 0 C2.31 0 4.62 0 7 0 C7 0.99 7 1.98 7 3 C3.89448334 3 2.64738916 2.4606285 0 1 C0 0.67 0 0.34 0 0 Z " fill="#01853F" transform="translate(1031,921)"/>
<path d="M0 0 C1.65 0 3.3 0 5 0 C4.67 1.32 4.34 2.64 4 4 C2.68 4 1.36 4 0 4 C0 2.68 0 1.36 0 0 Z " fill="#01883E" transform="translate(1023,912)"/>
<path d="M0 0 C1.65 0 3.3 0 5 0 C4.34 1.32 3.68 2.64 3 4 C1.68 3.67 0.36 3.34 -1 3 C-0.67 2.01 -0.34 1.02 0 0 Z " fill="#018840" transform="translate(1358,863)"/>
<path d="M0 0 C0.99 0.99 1.98 1.98 3 3 C2.01 4.485 2.01 4.485 1 6 C0.01 6 -0.98 6 -2 6 C-1.125 1.125 -1.125 1.125 0 0 Z " fill="#008140" transform="translate(674,777)"/>
<path d="M0 0 C1.32 0 2.64 0 4 0 C4 1.65 4 3.3 4 5 C2.68 4.67 1.36 4.34 0 4 C0 2.68 0 1.36 0 0 Z " fill="#018646" transform="translate(1896,732)"/>
<path d="M0 0 C0.99 0.33 1.98 0.66 3 1 C2.67 2.65 2.34 4.3 2 6 C1.34 6 0.68 6 0 6 C-0.38218767 4.34385343 -0.71395102 2.67542976 -1 1 C-0.67 0.67 -0.34 0.34 0 0 Z " fill="#018742" transform="translate(526,693)"/>
<path d="M0 0 C1.37562854 1.28965176 2.70766393 2.62689293 4 4 C4 4.66 4 5.32 4 6 C2.35 5.67 0.7 5.34 -1 5 C-0.67 3.35 -0.34 1.7 0 0 Z " fill="#008741" transform="translate(1374,674)"/>
<path d="M0 0 C1.65 0 3.3 0 5 0 C5 1.98 5 3.96 5 6 C4.34 6 3.68 6 3 6 C2.67 4.68 2.34 3.36 2 2 C1.34 2 0.68 2 0 2 C0 1.34 0 0.68 0 0 Z " fill="#017E3D" transform="translate(413,667)"/>
<path d="M0 0 C2.475 0.495 2.475 0.495 5 1 C4.67 1.99 4.34 2.98 4 4 C1.9375 4.6875 1.9375 4.6875 0 5 C0 3.35 0 1.7 0 0 Z " fill="#017E3E" transform="translate(671,653)"/>
<path d="M0 0 C0.99 0.66 1.98 1.32 3 2 C3.1875 4.625 3.1875 4.625 3 7 C2.34 7 1.68 7 1 7 C1 6.01 1 5.02 1 4 C-0.32 3.67 -1.64 3.34 -3 3 C-2.01 2.01 -1.02 1.02 0 0 Z " fill="#018544" transform="translate(1630,622)"/>
<path d="M0 0 C1.65 0 3.3 0 5 0 C4.34 1.32 3.68 2.64 3 4 C1.68 4 0.36 4 -1 4 C-0.67 2.68 -0.34 1.36 0 0 Z " fill="#01904D" transform="translate(1241,618)"/>
<path d="M0 0 C1.98 0.495 1.98 0.495 4 1 C3.34 2.32 2.68 3.64 2 5 C1.01 5 0.02 5 -1 5 C-0.67 3.35 -0.34 1.7 0 0 Z " fill="#018B40" transform="translate(1108,593)"/>
<path d="M0 0 C1.65 0.33 3.3 0.66 5 1 C4.01 2.485 4.01 2.485 3 4 C1.68 4 0.36 4 -1 4 C-0.67 2.68 -0.34 1.36 0 0 Z " fill="#01853F" transform="translate(1542,559)"/>
<path d="M0 0 C1.98 0.495 1.98 0.495 4 1 C4 1.99 4 2.98 4 4 C3.01 4.495 3.01 4.495 2 5 C1.01 4.34 0.02 3.68 -1 3 C-0.67 2.01 -0.34 1.02 0 0 Z " fill="#098747" transform="translate(719,550)"/>
<path d="M0 0 C0.99 0 1.98 0 3 0 C3 1.65 3 3.3 3 5 C1.68 4.67 0.36 4.34 -1 4 C-1 1 -1 1 0 0 Z " fill="#188246" transform="translate(1052,535)"/>
<path d="M0 0 C0.66 1.32 1.32 2.64 2 4 C-1.75 5.125 -1.75 5.125 -4 4 C-3.67 3.01 -3.34 2.02 -3 1 C-2.01 0.67 -1.02 0.34 0 0 Z " fill="#018848" transform="translate(1201,460)"/>
<path d="M0 0 C2.475 0.99 2.475 0.99 5 2 C4.01 3.485 4.01 3.485 3 5 C2.34 5 1.68 5 1 5 C0.34 3.68 -0.32 2.36 -1 1 C-0.67 0.67 -0.34 0.34 0 0 Z " fill="#018440" transform="translate(885,454)"/>
<path d="M0 0 C1.65 0.33 3.3 0.66 5 1 C4.34 2.32 3.68 3.64 3 5 C2.67 4.34 2.34 3.68 2 3 C1.01 3 0.02 3 -1 3 C-0.67 2.01 -0.34 1.02 0 0 Z " fill="#018142" transform="translate(1605,385)"/>
<path d="M0 0 C0.99 0 1.98 0 3 0 C3.33 1.32 3.66 2.64 4 4 C2.68 4.33 1.36 4.66 0 5 C-0.5625 3.0625 -0.5625 3.0625 -1 1 C-0.67 0.67 -0.34 0.34 0 0 Z " fill="#017D3E" transform="translate(1153,87)"/>
<path d="M0 0 C0.66 0.33 1.32 0.66 2 1 C1.01 2.485 1.01 2.485 0 4 C0.99 4 1.98 4 3 4 C3.33 3.34 3.66 2.68 4 2 C4.33 3.32 4.66 4.64 5 6 C4.01 6.495 4.01 6.495 3 7 C3 6.34 3 5.68 3 5 C1.35 5 -0.3 5 -2 5 C-1.34 3.35 -0.68 1.7 0 0 Z " fill="#066435" transform="translate(187,66)"/>
<path d="M0 0 C2.0625 0.4375 2.0625 0.4375 4 1 C4 2.32 4 3.64 4 5 C2.68 5 1.36 5 0 5 C-0.5625 3.0625 -0.5625 3.0625 -1 1 C-0.67 0.67 -0.34 0.34 0 0 Z " fill="#15673A" transform="translate(172,63)"/>
<path d="M0 0 C0.99 0 1.98 0 3 0 C2.34 1.65 1.68 3.3 1 5 C0.01 5 -0.98 5 -2 5 C-2 2 -2 2 0 0 Z " fill="#015E2C" transform="translate(823,59)"/>
<path d="M0 0 C0.66 0.33 1.32 0.66 2 1 C0.1875 4 0.1875 4 -2 7 C-2.99 7 -3.98 7 -5 7 C-1.125 1.125 -1.125 1.125 0 0 Z " fill="#156A2F" transform="translate(955,19)"/>
<path d="M0 0 C0.99 0.33 1.98 0.66 3 1 C2.67 2.32 2.34 3.64 2 5 C0.68 4.67 -0.64 4.34 -2 4 C-1.34 2.68 -0.68 1.36 0 0 Z " fill="#C69C22" transform="translate(963,12)"/>
<path d="M0 0 C2.475 0.495 2.475 0.495 5 1 C5 2.32 5 3.64 5 5 C3.68 4.67 2.36 4.34 1 4 C0.67 2.68 0.34 1.36 0 0 Z " fill="#028F46" transform="translate(1869,902)"/>
<path d="M0 0 C1.32 0.66 2.64 1.32 4 2 C3.01 3.485 3.01 3.485 2 5 C0.68 4.67 -0.64 4.34 -2 4 C-1.34 2.68 -0.68 1.36 0 0 Z " fill="#018D49" transform="translate(1412,891)"/>
<path d="M0 0 C2.97 0.495 2.97 0.495 6 1 C4.68 1.33 3.36 1.66 2 2 C2 2.99 2 3.98 2 5 C0.35 5 -1.3 5 -3 5 C-2.67 4.34 -2.34 3.68 -2 3 C-1.34 3 -0.68 3 0 3 C0 2.01 0 1.02 0 0 Z " fill="#017E3A" transform="translate(1310,888)"/>
<path d="M0 0 C1.98 0 3.96 0 6 0 C5.67 0.99 5.34 1.98 5 3 C3.02 3 1.04 3 -1 3 C-0.67 2.01 -0.34 1.02 0 0 Z " fill="#01863D" transform="translate(1197,796)"/>
<path d="M0 0 C1.32 0 2.64 0 4 0 C3.67 1.65 3.34 3.3 3 5 C2.01 5 1.02 5 0 5 C0 3.35 0 1.7 0 0 Z " fill="#05873F" transform="translate(872,774)"/>
<path d="M0 0 C1.32 0.33 2.64 0.66 4 1 C4 1.99 4 2.98 4 4 C1.03 3.505 1.03 3.505 -2 3 C-1.34 2.01 -0.68 1.02 0 0 Z " fill="#01642A" transform="translate(379,735)"/>
<path d="M0 0 C0.33 0.99 0.66 1.98 1 3 C0 4 0 4 -2.5625 4.0625 C-3.7690625 4.0315625 -3.7690625 4.0315625 -5 4 C-5 3.01 -5 2.02 -5 1 C-2 0 -2 0 0 0 Z " fill="#018547" transform="translate(1668,727)"/>
<path d="M0 0 C-0.33 1.65 -0.66 3.3 -1 5 C-2.65 4.67 -4.3 4.34 -6 4 C-2.25 0 -2.25 0 0 0 Z " fill="#017F41" transform="translate(565,728)"/>
<path d="M0 0 C-0.99 1.485 -0.99 1.485 -2 3 C-3.9375 2.625 -3.9375 2.625 -6 2 C-6.33 1.34 -6.66 0.68 -7 0 C-3.86650268 -1.04449911 -3.01031744 -0.93423645 0 0 Z " fill="#038948" transform="translate(1424,725)"/>
<path d="M0 0 C2.475 0.99 2.475 0.99 5 2 C4.01 2.99 3.02 3.98 2 5 C1.01 4.67 0.02 4.34 -1 4 C-0.67 2.68 -0.34 1.36 0 0 Z " fill="#008944" transform="translate(1200,702)"/>
<path d="M0 0 C1.32 0 2.64 0 4 0 C4.33 1.32 4.66 2.64 5 4 C4.01 4.33 3.02 4.66 2 5 C1.34 4.34 0.68 3.68 0 3 C0 2.01 0 1.02 0 0 Z " fill="#148849" transform="translate(1254,680)"/>
<path d="M0 0 C0.66 1.32 1.32 2.64 2 4 C0.68 4.33 -0.64 4.66 -2 5 C-2.66 4.01 -3.32 3.02 -4 2 C-2.68 1.34 -1.36 0.68 0 0 Z " fill="#048140" transform="translate(454,677)"/>
<path d="M0 0 C0.66 0.33 1.32 0.66 2 1 C1.2884375 1.61875 1.2884375 1.61875 0.5625 2.25 C-1.16266518 4.182185 -1.56584875 5.48192275 -2 8 C-2.66 7.67 -3.32 7.34 -4 7 C-3.6875 4.625 -3.6875 4.625 -3 2 C-2.01 1.34 -1.02 0.68 0 0 Z " fill="#028642" transform="translate(1252,634)"/>
<path d="M0 0 C1.65 0 3.3 0 5 0 C5 0.99 5 1.98 5 3 C4.01 3.33 3.02 3.66 2 4 C1.34 3.67 0.68 3.34 0 3 C0 2.01 0 1.02 0 0 Z " fill="#018642" transform="translate(590,623)"/>
<path d="M0 0 C1.32 0.66 2.64 1.32 4 2 C3.67 3.65 3.34 5.3 3 7 C2.67 6.01 2.34 5.02 2 4 C1.01 3.67 0.02 3.34 -1 3 C-0.67 2.01 -0.34 1.02 0 0 Z " fill="#019147" transform="translate(1082,619)"/>
<path d="M0 0 C1.65 0 3.3 0 5 0 C5.33 0.66 5.66 1.32 6 2 C3 4 3 4 0 4 C0 2.68 0 1.36 0 0 Z " fill="#188853" transform="translate(1741,603)"/>
<path d="M0 0 C0.66 0 1.32 0 2 0 C2.66 1.32 3.32 2.64 4 4 C3.34 4.66 2.68 5.32 2 6 C1.01 6 0.02 6 -1 6 C-0.67 4.02 -0.34 2.04 0 0 Z " fill="#097E4E" transform="translate(1883,557)"/>
<path d="M0 0 C1.98 0.495 1.98 0.495 4 1 C3.67 2.32 3.34 3.64 3 5 C1.68 4.67 0.36 4.34 -1 4 C-0.67 2.68 -0.34 1.36 0 0 Z " fill="#028441" transform="translate(1736,497)"/>
<path d="M0 0 C0.33 0 0.66 0 1 0 C1 1.98 1 3.96 1 6 C0.01 6.33 -0.98 6.66 -2 7 C-2.33 6.01 -2.66 5.02 -3 4 C-1.625 1.8125 -1.625 1.8125 0 0 Z " fill="#017F3B" transform="translate(1552,466)"/>
<path d="M0 0 C1.65 0.33 3.3 0.66 5 1 C4.67 1.99 4.34 2.98 4 4 C2.35 3.67 0.7 3.34 -1 3 C-0.67 2.01 -0.34 1.02 0 0 Z " fill="#01622D" transform="translate(1822,443)"/>
<path d="M0 0 C0.99 0 1.98 0 3 0 C3 0.66 3 1.32 3 2 C3.66 2.33 4.32 2.66 5 3 C4 4 4 4 1.4375 4.0625 C0.2309375 4.0315625 0.2309375 4.0315625 -1 4 C-0.67 2.68 -0.34 1.36 0 0 Z " fill="#1F7C3E" transform="translate(1302,298)"/>
<path d="M0 0 C1.98 0.99 1.98 0.99 4 2 C4.33 1.34 4.66 0.68 5 0 C4.67 1.98 4.34 3.96 4 6 C3.34 6 2.68 6 2 6 C0 3 0 3 0 0 Z " fill="#E6F5EB" transform="translate(963,225)"/>
<path d="M0 0 C-0.33 0.99 -0.66 1.98 -1 3 C-2.65 3 -4.3 3 -6 3 C-6 2.01 -6 1.02 -6 0 C-2.25 -1.125 -2.25 -1.125 0 0 Z " fill="#00652D" transform="translate(580,212)"/>
<path d="M0 0 C1.32 0.66 2.64 1.32 4 2 C3.67 2.99 3.34 3.98 3 5 C1.68 4.67 0.36 4.34 -1 4 C-0.67 2.68 -0.34 1.36 0 0 Z " fill="#018343" transform="translate(1458,167)"/>
<path d="M0 0 C1.98 0.66 3.96 1.32 6 2 C5.34 2.66 4.68 3.32 4 4 C1.375 3.625 1.375 3.625 -1 3 C-0.67 2.01 -0.34 1.02 0 0 Z " fill="#005B27" transform="translate(1739,107)"/>
<path d="M0 0 C0.99 0 1.98 0 3 0 C2.67 1.65 2.34 3.3 2 5 C0.68 5.33 -0.64 5.66 -2 6 C-2 4 -2 4 0 2 C0 1.34 0 0.68 0 0 Z " fill="#F0F7ED" transform="translate(956,76)"/>
<path d="M0 0 C1.98 0.99 1.98 0.99 4 2 C4 2.99 4 3.98 4 5 C2.68 5 1.36 5 0 5 C0 3.35 0 1.7 0 0 Z " fill="#01803E" transform="translate(995,48)"/>
<path d="M0 0 C0.66 1.32 1.32 2.64 2 4 C1.01 4.33 0.02 4.66 -1 5 C-1.99 4.34 -2.98 3.68 -4 3 C-2.68 2.01 -1.36 1.02 0 0 Z " fill="#008840" transform="translate(1334,983)"/>
<path d="M0 0 C0.99 0.33 1.98 0.66 3 1 C3.625 2.9375 3.625 2.9375 4 5 C4.33 5.66 4.66 6.32 5 7 C4.01 7 3.02 7 2 7 C1.67 5.68 1.34 4.36 1 3 C0.34 3 -0.32 3 -1 3 C-0.67 2.01 -0.34 1.02 0 0 Z " fill="#028140" transform="translate(1673,889)"/>
<path d="M0 0 C1.32 0 2.64 0 4 0 C3.67 1.32 3.34 2.64 3 4 C1.68 3.67 0.36 3.34 -1 3 C-0.67 2.01 -0.34 1.02 0 0 Z " fill="#01682A" transform="translate(577,883)"/>
<path d="M0 0 C0.99 0.33 1.98 0.66 3 1 C3.33 1.99 3.66 2.98 4 4 C2.35 4.33 0.7 4.66 -1 5 C-0.67 3.35 -0.34 1.7 0 0 Z " fill="#00863E" transform="translate(1200,838)"/>
<path d="M0 0 C0.33 0.99 0.66 1.98 1 3 C0.67 3.33 0.34 3.66 0 4 C0.66 4.33 1.32 4.66 2 5 C2 5.66 2 6.32 2 7 C0.0625 6.6875 0.0625 6.6875 -2 6 C-2.33 5.01 -2.66 4.02 -3 3 C-2.01 2.01 -1.02 1.02 0 0 Z " fill="#01803C" transform="translate(1334,791)"/>
<path d="M0 0 C1.65 0 3.3 0 5 0 C4.67 1.32 4.34 2.64 4 4 C2.68 3.67 1.36 3.34 0 3 C0 2.01 0 1.02 0 0 Z " fill="#018243" transform="translate(1845,773)"/>
<path d="M0 0 C0.66 0 1.32 0 2 0 C2 0.66 2 1.32 2 2 C2.66 2.33 3.32 2.66 4 3 C3.34 3.66 2.68 4.32 2 5 C1.01 5 0.02 5 -1 5 C-0.67 3.35 -0.34 1.7 0 0 Z " fill="#018A44" transform="translate(1418,752)"/>
<path d="M0 0 C1.98 0 3.96 0 6 0 C5.34 1.32 4.68 2.64 4 4 C2.68 3.34 1.36 2.68 0 2 C0 1.34 0 0.68 0 0 Z " fill="#018242" transform="translate(1777,733)"/>
<path d="M0 0 C2.31 0 4.62 0 7 0 C6.67 0.99 6.34 1.98 6 3 C5.01 3.33 4.02 3.66 3 4 C2.67 3.01 2.34 2.02 2 1 C1.34 0.67 0.68 0.34 0 0 Z " fill="#017F3D" transform="translate(759,733)"/>
<path d="M0 0 C0.66 0.33 1.32 0.66 2 1 C1.67 1.99 1.34 2.98 1 4 C-0.98 4.33 -2.96 4.66 -5 5 C-5 4.01 -5 3.02 -5 2 C-2.625 0.9375 -2.625 0.9375 0 0 Z " fill="#01823B" transform="translate(1055,726)"/>
<path d="M0 0 C0.99 0.33 1.98 0.66 3 1 C2.67 2.65 2.34 4.3 2 6 C1.34 6 0.68 6 0 6 C-0.33 6.66 -0.66 7.32 -1 8 C-0.835 7.236875 -0.67 6.47375 -0.5 5.6875 C0.09145396 2.96403764 0.09145396 2.96403764 0 0 Z " fill="#02803D" transform="translate(1316,707)"/>
<path d="M0 0 C1.32 0 2.64 0 4 0 C3.67 1.32 3.34 2.64 3 4 C1.68 3.67 0.36 3.34 -1 3 C-0.67 2.01 -0.34 1.02 0 0 Z " fill="#01682B" transform="translate(608,625)"/>
<path d="M0 0 C1.65 0 3.3 0 5 0 C4.67 0.66 4.34 1.32 4 2 C3.01 2 2.02 2 1 2 C0.67 2.99 0.34 3.98 0 5 C-0.66 4.67 -1.32 4.34 -2 4 C-1.34 2.68 -0.68 1.36 0 0 Z " fill="#007F3C" transform="translate(1321,622)"/>
<path d="M0 0 C1.32 0 2.64 0 4 0 C3.34 1.32 2.68 2.64 2 4 C0.68 3.67 -0.64 3.34 -2 3 C-1.34 2.01 -0.68 1.02 0 0 Z " fill="#00682F" transform="translate(491,614)"/>
<path d="M0 0 C0.66 1.32 1.32 2.64 2 4 C1 5 1 5 -1.5625 5.0625 C-2.7690625 5.0315625 -2.7690625 5.0315625 -4 5 C-2.68 3.35 -1.36 1.7 0 0 Z " fill="#018A45" transform="translate(1384,613)"/>
<path d="M0 0 C1.32 0.66 2.64 1.32 4 2 C3.67 2.99 3.34 3.98 3 5 C1.68 4.67 0.36 4.34 -1 4 C-0.67 2.68 -0.34 1.36 0 0 Z " fill="#018842" transform="translate(1646,601)"/>
<path d="M0 0 C-1.27446435 2.5489287 -2.46363493 2.80641644 -5 4 C-5.99 4.66 -6.98 5.32 -8 6 C-7.6875 4.125 -7.6875 4.125 -7 2 C-4 0 -4 0 0 0 Z " fill="#017D40" transform="translate(1867,568)"/>
<path d="M0 0 C1.32 0.33 2.64 0.66 4 1 C3.67 1.99 3.34 2.98 3 4 C1.35 4 -0.3 4 -2 4 C-1.34 2.68 -0.68 1.36 0 0 Z " fill="#008240" transform="translate(1609,553)"/>
<path d="M0 0 C1.65 0 3.3 0 5 0 C3.6875 2 3.6875 2 2 4 C1.01 4 0.02 4 -1 4 C-0.67 2.68 -0.34 1.36 0 0 Z " fill="#018541" transform="translate(1397,510)"/>
<path d="M0 0 C-0.99 0.33 -1.98 0.66 -3 1 C-3.73323796 3.01508358 -3.73323796 3.01508358 -4 5 C-5.5 3.625 -5.5 3.625 -7 2 C-7 1.34 -7 0.68 -7 0 C-2.25 -1.125 -2.25 -1.125 0 0 Z " fill="#037A3D" transform="translate(1574,481)"/>
<path d="M0 0 C0.66 0.33 1.32 0.66 2 1 C2 2.32 2 3.64 2 5 C1.01 5 0.02 5 -1 5 C-1 4.34 -1 3.68 -1 3 C-1.66 3 -2.32 3 -3 3 C-3 2.34 -3 1.68 -3 1 C-2.01 0.67 -1.02 0.34 0 0 Z " fill="#07894A" transform="translate(989,458)"/>
<path d="M0 0 C1.32 0.33 2.64 0.66 4 1 C3.34 1 2.68 1 2 1 C2.33 2.65 2.66 4.3 3 6 C2.01 6 1.02 6 0 6 C0 4.02 0 2.04 0 0 Z " fill="#0A7E4E" transform="translate(1653,426)"/>
<path d="M0 0 C1.32 0 2.64 0 4 0 C4 1.32 4 2.64 4 4 C3.01 4.33 2.02 4.66 1 5 C0.67 3.35 0.34 1.7 0 0 Z " fill="#187F47" transform="translate(418,388)"/>
<path d="M0 0 C2.475 0.99 2.475 0.99 5 2 C3.625 4 3.625 4 2 6 C1.34 6 0.68 6 0 6 C0 4.02 0 2.04 0 0 Z " fill="#0C7539" transform="translate(1299,295)"/>
<path d="M0 0 C1.65 0 3.3 0 5 0 C5 0.99 5 1.98 5 3 C3.02 3 1.04 3 -1 3 C-0.67 2.01 -0.34 1.02 0 0 Z " fill="#08854D" transform="translate(1823,284)"/>
<path d="M0 0 C0.33 0.99 0.66 1.98 1 3 C2.32 2.67 3.64 2.34 5 2 C5 2.99 5 3.98 5 5 C3.35 5 1.7 5 0 5 C-0.5625 3.0625 -0.5625 3.0625 -1 1 C-0.67 0.67 -0.34 0.34 0 0 Z " fill="#EFF5E7" transform="translate(904,224)"/>
<path d="M0 0 C0.99 0.33 1.98 0.66 3 1 C2.34099246 4.07536854 1.46132217 6.07735566 0 9 C0 6.03 0 3.06 0 0 Z " fill="#057F5F" transform="translate(941,218)"/>
<path d="M0 0 C0.33 0.99 0.66 1.98 1 3 C1.66 3 2.32 3 3 3 C2.67 4.32 2.34 5.64 2 7 C1.01 6.67 0.02 6.34 -1 6 C-0.67 4.02 -0.34 2.04 0 0 Z " fill="#01642D" transform="translate(513,217)"/>
<path d="M0 0 C0.99 0.33 1.98 0.66 3 1 C3 2.65 3 4.3 3 6 C1.68 5.67 0.36 5.34 -1 5 C-0.67 3.35 -0.34 1.7 0 0 Z " fill="#838828" transform="translate(887,179)"/>
<path d="M0 0 C0.66 0.66 1.32 1.32 2 2 C1.625 4.125 1.625 4.125 1 6 C0.34 6 -0.32 6 -1 6 C-1 5.01 -1 4.02 -1 3 C-1.66 2.67 -2.32 2.34 -3 2 C-2.01 1.34 -1.02 0.68 0 0 Z " fill="#00652C" transform="translate(1496,128)"/>
<path d="M0 0 C2.475 0.495 2.475 0.495 5 1 C4.67 1.99 4.34 2.98 4 4 C2.68 4 1.36 4 0 4 C0 2.68 0 1.36 0 0 Z " fill="#017D3F" transform="translate(1139,70)"/>
<path d="M0 0 C0.99 0 1.98 0 3 0 C3.33 1.65 3.66 3.3 4 5 C3.01 5.33 2.02 5.66 1 6 C1 5.01 1 4.02 1 3 C0.34 3 -0.32 3 -1 3 C-0.67 2.01 -0.34 1.02 0 0 Z " fill="#015326" transform="translate(1,50)"/>
<path d="M0 0 C1.65 0 3.3 0 5 0 C5 0.99 5 1.98 5 3 C3.02 3 1.04 3 -1 3 C-0.67 2.01 -0.34 1.02 0 0 Z " fill="#197132" transform="translate(974,29)"/>
<path d="M0 0 C2.31 0 4.62 0 7 0 C6.01 0.66 5.02 1.32 4 2 C4.33 2.66 4.66 3.32 5 4 C3.35 3.67 1.7 3.34 0 3 C0 2.01 0 1.02 0 0 Z " fill="#00582A" transform="translate(1878,0)"/>
<path d="M0 0 C0.99 0.33 1.98 0.66 3 1 C1.25 5.875 1.25 5.875 -1 7 C-0.67 4.69 -0.34 2.38 0 0 Z " fill="#047842" transform="translate(1407,0)"/>
</svg>
